<svg width="251" height="251" viewBox="0 0 251 251" fill="none" xmlns="http://www.w3.org/2000/svg">
<path d="M53.1034 197.401C52.8407 196.612 52.741 195.778 52.8104 194.949C52.8798 194.12 53.1169 193.314 53.5072 192.58C50.1979 189.751 46.5134 187.393 42.5584 185.573C39.6834 188.581 36.1009 192.906 34.7209 194.361C37.0959 192.793 58.8747 208.397 59.7297 212.292C60.1334 206.925 54.6084 202.118 53.1034 197.401Z" fill="#FECFC4"/>
<path d="M116.373 188.637C115.426 187.521 114.942 186.085 115.02 184.624C110.916 183.943 106.744 183.775 102.598 184.124C102.545 185.451 102.42 186.775 102.223 188.09C101.772 190.965 101.131 192.103 100.68 194.787C101.368 192.198 128.111 196.996 129.346 199.989C128.391 194.242 119.77 192.817 116.373 188.637Z" fill="#FECFC4"/>
<path d="M229.518 154.01C228.117 153.01 224.768 150.97 220.393 148.357L200.018 152.656L194.036 124.465L197.385 123.752C194.752 106.098 194.245 103.33 192.017 93.9222C185.535 100.837 169.858 104.385 163.113 102.496C163.291 103.028 163.422 103.371 164.016 104.8C153.016 128.811 151.31 133.205 150.977 137.147C150.602 141.772 151.096 144.866 159.931 179.185C165.306 180.685 174.29 178.157 177.221 175.052C174.751 164.388 172.233 153.772 169.502 139.878C169.838 138.951 170.236 138.047 170.69 137.171C173.084 130.193 174.631 122.953 175.297 115.606C179.707 135.593 181.003 142.405 184.037 145.792C187.101 149.188 190.662 151.35 220.303 168.042C224.748 166.891 230.286 158.942 229.518 154.01Z" fill="#FECFC4"/>
<path d="M59.3022 144.985C44.8847 146.763 42.6772 147.018 30.3984 148.618L55.7634 166.378C56.8584 165.271 61.9947 160.073 63.0784 158.945C62.5034 157.128 60.2159 148.637 59.3022 144.985Z" fill="#FECFC4"/>
<path d="M39.091 142.206L39.1385 137.741C37.9934 137.909 36.9588 138.516 36.2538 139.434C35.5489 140.351 35.2291 141.508 35.3622 142.657L35.956 146.907L39.661 146.432L39.091 142.206Z" fill="#FECFC4"/>
<path d="M54.7859 140.282C54.6493 139.202 54.1144 138.211 53.2859 137.503C52.3657 137.829 51.4081 138.036 50.4359 138.121C50.6372 138.996 50.7009 139.306 50.9109 140.353C51.1059 140.548 51.0472 140.506 51.6472 144.978L55.3522 144.503L54.7859 140.282Z" fill="#FECFC4"/>
<path d="M229.495 156.337C228.503 160.776 225.874 164.677 222.132 167.262C222.507 172.107 224.578 183.151 226.55 186.12C230.425 181.489 235.48 164.816 235.741 158.427C233.714 157.575 231.626 156.876 229.495 156.337Z" fill="#6153BD"/>
<path d="M175.867 176.192C171.98 178.493 167.536 179.684 163.018 179.636C159.459 184.191 156.675 189.301 154.777 194.761C160.902 194.072 174.68 187.897 179.24 183.219C178.367 180.764 177.237 178.408 175.867 176.192Z" fill="#6153BD"/>
<path d="M58.4747 212.917C53.1847 211.629 32.536 197.995 34.5547 194.504C36.3735 192.321 56.8872 207.066 59.451 211.672C60.036 212.732 59.741 213.227 58.4747 212.917Z" fill="#6153BD"/>
<path d="M117.687 195.855C110.212 194.301 101.75 193.395 100.778 194.652C98.6985 197.342 113.667 199.902 117.047 200.341C122.635 201.073 127.813 201.263 129.107 200.605C131.771 199.253 120.793 196.503 117.687 195.855Z" fill="#6153BD"/>
<path d="M119.77 187.307C119.722 186.452 118.582 185.36 115.043 184.647C114.954 186.11 115.44 187.551 116.397 188.661C118.796 188.661 119.817 188.02 119.77 187.307Z" fill="#6153BD"/>
<path d="M98.941 185.977C98.846 186.999 100.057 187.711 102.242 188.115C102.432 186.785 102.551 185.478 102.617 184.148C100.105 184.457 99.036 185.129 98.941 185.977Z" fill="#6153BD"/>
<path d="M42.5584 185.55C41.5372 186.595 40.3084 187.996 39.0672 189.397C37.2147 187.877 36.5672 186.167 37.2384 185.265L37.3809 185.099C38.0697 184.457 39.7559 184.386 42.5584 185.55Z" fill="#6153BD"/>
<path d="M53.536 192.58C56.481 195.097 57.601 196.955 57.2172 197.757C56.8885 198.447 55.4597 198.422 53.1085 197.401C52.8351 196.613 52.7319 195.776 52.8055 194.945C52.8792 194.114 53.1282 193.308 53.536 192.58Z" fill="#6153BD"/>
<path d="M163.536 103.66C161.983 99.3172 163.376 103.572 159.427 92.4022C160.073 97.1071 160.32 101.858 160.163 106.605C161.593 105.393 162.757 104.348 163.536 103.66Z" fill="#6153BD"/>
<path d="M191.161 90.431C185.342 97.056 168.411 101.356 161.853 99.1948C162.305 100.43 162.728 101.57 163.088 102.52C169.978 104.449 185.62 100.72 191.992 93.9223C191.708 92.7348 191.447 91.5473 191.161 90.431Z" fill="#6153BD"/>
<path d="M175.297 115.606C174.631 122.953 173.084 130.193 170.69 137.171C171.925 134.725 173.991 131.21 177.315 124.75L175.297 115.606Z" fill="#6153BD"/>
<path d="M217.691 103.541C217.22 102.548 216.839 101.514 216.551 100.453C217.988 100.515 218.753 100.868 219.051 101.328C219.597 102.166 218.741 103.2 217.691 103.541Z" fill="#6153BD"/>
<path d="M205.863 102.662C204.153 103.446 203.488 104.23 203.512 104.8C203.583 105.536 204.486 106.011 206.125 105.726C206.507 104.962 206.02 103.503 205.863 102.662Z" fill="#6153BD"/>
<path d="M189.001 81.9048C186.935 81.6198 184.275 81.3348 180.783 81.0023C184.091 82.7112 187.266 84.6641 190.283 86.8448C189.786 84.8973 189.333 83.1873 189.001 81.9048Z" fill="#6153BD"/>
<path d="M163.661 56.516C163.212 58.115 162.539 59.6423 161.661 61.0522C161.708 60.3872 161.708 59.5522 161.78 58.511C162.306 57.9647 162.923 57.2997 163.661 56.516Z" fill="#6153BD"/>
<path d="M161.76 46.2085C161.617 44.546 161.071 44.2085 156.273 43.9048C151.191 43.5485 150.811 44.3798 151.333 47.0873C151.69 48.916 152.64 49.4385 154.563 49.4385C155.751 49.4385 157.313 49.2248 159.29 49.011C160.81 50.9348 161.807 51.9323 161.807 50.7685C161.807 48.5598 164.111 48.6073 164.158 52.1435C165.013 53.0185 165.963 54.0673 166.985 55.0885C165.94 46.6835 165.726 46.5648 161.76 46.2085Z" fill="#6153BD"/>
<path d="M164.087 69.246C164.652 68.406 165.122 67.506 165.488 66.5622C164.776 65.541 164.135 64.4722 163.488 63.356C163.061 64.356 162.613 65.3747 162.23 66.3722C162.416 67.3672 162.752 68.3285 163.23 69.2222C162.945 71.906 161.472 91.1197 161.472 92.3785C162.273 94.0447 163.261 95.6144 164.417 97.0572C165.706 95.6543 166.851 94.1268 167.837 92.4972C167.365 88.9347 164.467 70.5285 164.087 69.246Z" fill="#6153BD"/>
<path d="M134.138 107.484C134.567 107.177 135.445 107.317 136.703 108.149C135.635 109.051 135.017 109.597 134.566 109.977C133.592 108.766 133.57 107.89 134.138 107.484Z" fill="#6153BD"/>
<path d="M144.232 116.604C144.968 117.979 145.107 118.884 144.85 119.335C144.832 119.384 144.799 119.425 144.755 119.454C144.327 119.905 143.211 119.667 141.976 118.599C142.855 117.815 144.232 116.604 144.232 116.604Z" fill="#6153BD"/>
<path d="M38.521 127.386C38.472 128.129 38.4482 128.874 38.4497 129.618C36.716 129.69 35.8972 129.382 35.861 128.93C35.8272 128.503 36.6922 127.885 38.521 127.386Z" fill="#6153BD"/>
<path d="M51.8685 127.338C51.9397 127.766 51.3222 128.288 49.446 128.573C49.0546 127.914 48.8647 127.155 48.8997 126.388C50.7997 126.503 51.7972 126.911 51.8685 127.338Z" fill="#6153BD"/>
<path d="M79.846 96.0835C79.301 102.747 79.1072 109.805 78.971 113.017C68.1185 113.279 58.9522 114.965 54.7485 118.052C54.7722 119.335 54.796 120.594 54.8672 121.802C61.186 117.225 74.971 116.437 82.7972 116.292C81.5185 111.555 80.5435 102.525 79.846 96.0835Z" fill="#6153BD"/>
<path d="M55.7634 101.427C55.6247 102.629 55.5059 103.832 55.4072 105.037C54.2672 105.412 52.7709 105.891 51.2984 106.343C49.7547 106.817 48.2347 107.246 47.1897 107.555C50.1494 105.658 53.0109 103.613 55.7634 101.427Z" fill="#6153BD"/>
<path d="M87.5648 74.4472C87.4898 74.5671 87.4022 74.6786 87.3035 74.7797C86.721 75.386 84.8635 75.3035 83.201 75.0422C82.8453 74.05 82.6507 73.0072 82.6248 71.9535C84.6673 73.996 86.7573 75.611 87.5648 74.4472Z" fill="#6153BD"/>
<path d="M88.1822 57.9647C88.3247 55.3522 85.071 55.8747 84.8072 57.3472C84.6116 57.004 84.3088 56.7344 83.9452 56.5797C83.5817 56.425 83.1774 56.3938 82.7945 56.4908C82.4115 56.5879 82.0709 56.8078 81.8248 57.1169C81.5788 57.426 81.4409 57.8072 81.4322 58.2022C80.2685 56.8272 77.8935 57.3272 78.2972 59.4135C76.6585 57.8222 72.4547 58.7722 79.1722 71.621C80.4666 70.5203 81.7337 69.3879 82.9722 68.2247C81.0722 65.256 83.2572 63.8497 84.231 65.7785C84.7535 66.7997 85.731 66.7047 85.606 63.831C86.374 63.633 87.1215 63.3626 87.8385 63.0235C89.2544 62.3972 90.4587 61.3744 91.306 60.0785C92.5522 58.0835 90.1535 55.7085 88.1822 57.9647Z" fill="#6153BD"/>
<path d="M82.1022 143.869C83.5509 155.957 83.9072 160.399 83.836 162.916C80.9365 154.723 77.5812 146.698 73.7859 138.879C76.0697 140.306 78.8247 141.921 82.1022 143.869Z" fill="#6153BD"/>
<path d="M220.114 113.611L221.036 118.003L224.694 117.22L223.601 112.113C223.41 111.232 222.91 110.449 222.191 109.904C221.472 109.36 220.582 109.09 219.682 109.145C220.011 110.61 220.155 112.11 220.114 113.611Z" fill="#6153BD"/>
<path d="M207.455 111.711L207.217 111.759C206.732 111.858 206.271 112.053 205.862 112.332C205.452 112.611 205.102 112.968 204.832 113.384C204.563 113.799 204.379 114.264 204.291 114.752C204.203 115.24 204.213 115.74 204.32 116.223L205.365 121.33L209.022 120.546C208.98 120.342 207.595 112.128 207.455 111.711Z" fill="#6153BD"/>
<path d="M220.114 113.611L221.18 118.667L224.837 117.883L223.601 112.113C223.41 111.232 222.91 110.449 222.191 109.904C221.472 109.36 220.582 109.09 219.682 109.145C220.011 110.61 220.155 112.11 220.114 113.611Z" stroke="#120071" stroke-width="0.9375" stroke-linejoin="round"/>
<path d="M207.455 111.711L207.217 111.759C206.732 111.858 206.271 112.053 205.862 112.332C205.452 112.611 205.102 112.968 204.832 113.384C204.563 113.799 204.379 114.264 204.291 114.752C204.203 115.24 204.213 115.74 204.32 116.223L205.495 122.022L209.152 121.239C209.11 121.035 207.595 112.128 207.455 111.711Z" stroke="#120071" stroke-width="0.9375" stroke-linejoin="round"/>
<path d="M37.3573 123.515C38.2835 123.089 38.2835 125.13 37.5235 125.367C36.7635 125.605 36.786 123.777 37.3573 123.515Z" fill="#6153BD"/>
<path d="M112.526 124.56C113.008 123.637 114.968 123.75 114.568 124.655C114.168 125.56 111.941 125.681 112.526 124.56Z" fill="#6153BD"/>
<path d="M146.108 115.487C146.298 116.461 148.046 115.112 147.747 114.3C147.448 113.487 145.895 114.395 146.108 115.487Z" fill="#6153BD"/>
<path d="M215.577 95.8222C216.503 95.811 217.077 97.936 215.933 97.9123C214.79 97.8885 214.58 95.8335 215.577 95.8222Z" fill="#6153BD"/>
<path d="M237.213 117.004L237.451 132.629C237.453 132.706 237.428 132.781 237.381 132.842C237.333 132.903 237.265 132.945 237.19 132.961L231.727 134.125L232.463 137.545L228.925 138.305L228.188 134.885L209.948 138.76L210.685 142.18L207.146 142.94L206.411 139.522L200.949 140.686C200.874 140.695 200.799 140.682 200.732 140.649C200.665 140.615 200.61 140.562 200.573 140.496L194.448 126.121L200.073 152.674L242.895 143.577L237.213 117.004Z" fill="#6153BD"/>
<path d="M236.525 115.416L194.368 124.394L201.018 139.997L206.243 138.881L205.531 135.556L209.07 134.796L209.782 138.121L228.022 134.25L227.333 130.925L230.872 130.165L231.585 133.49L236.786 132.397L236.525 115.416Z" fill="#6153BD"/>
<path d="M200.073 152.674L194.042 124.461L236.857 115.341L242.895 143.577L200.073 152.674Z" stroke="#120071" stroke-width="0.9375" stroke-linecap="round" stroke-linejoin="round"/>
<path d="M201.342 122.888L204.698 118.123" stroke="#120071" stroke-width="0.9375" stroke-linecap="round" stroke-linejoin="round"/>
<path d="M218.522 98.4348L243.911 62.1685L199.071 30.771L177.72 61.2422" stroke="#120071" stroke-width="0.9375" stroke-linecap="round" stroke-linejoin="round"/>
<path d="M174.157 161.8L184.797 146.576" stroke="#120071" stroke-width="0.9375" stroke-linecap="round" stroke-linejoin="round"/>
<path d="M74.051 179.185L133.046 220.486L161.736 179.541" stroke="#120071" stroke-width="0.9375" stroke-linecap="round" stroke-linejoin="round"/>
<path d="M44.3872 91.5948L37.8084 86.9873L6.41095 131.827L55.7634 166.384" stroke="#120071" stroke-width="0.9375" stroke-linecap="round" stroke-linejoin="round"/>
<path d="M131.075 127.861L119.603 144.249L115.59 141.446" stroke="#120071" stroke-width="0.9375" stroke-linecap="round" stroke-linejoin="round"/>
<path d="M101.197 69.8397L114.402 50.9584L126.871 59.6747L141.596 38.6797" stroke="#120071" stroke-width="0.9375" stroke-linecap="round" stroke-linejoin="round"/>
<path d="M132.31 40.2947L141.596 38.6797L143.235 47.9422" stroke="#120071" stroke-width="0.9375" stroke-linecap="round" stroke-linejoin="round"/>
<path d="M43.3897 66.4198L51.9397 64.8998C57.0284 63.9748 55.5722 56.4448 50.6097 57.3473L45.8359 58.1548C40.7522 59.021 39.5372 51.4498 44.5059 50.6023L53.0559 49.0823" stroke="#120071" stroke-width="0.9375" stroke-linecap="round" stroke-linejoin="round"/>
<path d="M46.3822 47.3722L50.0635 68.1297" stroke="#120071" stroke-width="0.9375" stroke-linecap="round" stroke-linejoin="round"/>
<path d="M128.296 160.327L138.603 158.498" stroke="#120071" stroke-width="0.9375" stroke-linecap="round" stroke-linejoin="round"/>
<path d="M132.547 154.247L134.352 164.579" stroke="#120071" stroke-width="0.9375" stroke-linecap="round" stroke-linejoin="round"/>
<path d="M192.587 179.921L207.003 177.38" stroke="#120071" stroke-width="0.9375" stroke-linecap="round" stroke-linejoin="round"/>
<path d="M198.525 171.442L201.066 185.882" stroke="#120071" stroke-width="0.9375" stroke-linecap="round" stroke-linejoin="round"/>
<path d="M78.9672 210.345C79.4123 210.353 79.8547 210.273 80.2685 210.109C80.6822 209.944 81.059 209.699 81.3769 209.387C81.6947 209.076 81.9472 208.704 82.1195 208.293C82.2919 207.883 82.3807 207.442 82.3807 206.997C82.3807 206.551 82.2919 206.111 82.1195 205.7C81.9472 205.29 81.6947 204.918 81.3769 204.606C81.059 204.294 80.6822 204.049 80.2685 203.885C79.8547 203.72 79.4123 203.64 78.9672 203.649C78.0904 203.665 77.2553 204.026 76.6412 204.652C76.0272 205.278 75.6832 206.12 75.6832 206.997C75.6832 207.874 76.0272 208.716 76.6412 209.342C77.2553 209.968 78.0904 210.328 78.9672 210.345Z" stroke="#120071" stroke-width="0.9375" stroke-linecap="round" stroke-linejoin="round"/>
<path d="M47.7597 174.503L29.3297 176.807L25.8859 149.182L59.3259 145.003" stroke="#120071" stroke-width="0.9375" stroke-linecap="round" stroke-linejoin="round"/>
<path d="M87.8285 63.0672C89.2652 62.4455 90.4869 61.4142 91.341 60.1022C92.5522 58.1022 90.201 55.7084 88.206 57.9884C88.3485 55.3522 85.1185 55.8984 84.831 57.3709C84.6335 57.0304 84.3304 56.7636 83.9677 56.6108C83.6049 56.458 83.2022 56.4277 82.8207 56.5244C82.4391 56.621 82.0995 56.8394 81.8532 57.1465C81.6069 57.4535 81.4675 57.8325 81.456 58.2259C80.2922 56.8509 77.9172 57.3509 78.321 59.4372C76.6822 57.8459 72.4785 58.7959 79.196 71.6447" stroke="#120071" stroke-width="0.9375" stroke-linecap="round" stroke-linejoin="round"/>
<path d="M83.2009 75.0422C82.8518 74.0491 82.6652 73.0061 82.6484 71.9535C84.5234 73.8472 86.4722 75.3935 87.3909 74.6822" stroke="#120071" stroke-width="0.9375" stroke-linecap="round" stroke-linejoin="round"/>
<path d="M57.0935 90.7635C54.5047 109.859 53.9235 120.691 56.0247 130.996C57.9385 140.38 61.3447 153.06 63.1022 158.974C54.9322 167.31 38.9247 183.294 37.2385 185.289" stroke="#120071" stroke-width="0.9375" stroke-linecap="round" stroke-linejoin="round"/>
<path d="M39.0672 189.421C37.2147 187.901 36.5772 186.195 37.2385 185.288C38.171 184.011 41.8247 184.357 48.971 189.163C55.291 193.413 57.7647 196.623 57.2122 197.788C56.8835 198.478 55.4547 198.453 53.1035 197.432" stroke="#120071" stroke-width="0.9375" stroke-linecap="round" stroke-linejoin="round"/>
<path d="M102.218 188.115C100.033 187.711 98.8109 186.997 98.9172 185.977C99.0684 184.527 102.1 183.625 110.056 184.077C117.556 184.503 119.681 186.118 119.77 187.307C119.822 188.02 118.796 188.661 116.373 188.661" stroke="#120071" stroke-width="0.9375" stroke-linecap="round" stroke-linejoin="round"/>
<path d="M57.1885 197.753C82.0072 170.774 83.0885 169.038 83.6885 164.598C84.0147 162.198 83.926 159.184 82.0972 143.841" stroke="#120071" stroke-width="0.9375" stroke-linecap="round" stroke-linejoin="round"/>
<path d="M34.5784 194.527C36.0997 191.915 61.4159 210.202 59.6584 212.839C58.2859 214.905 32.3234 198.4 34.5784 194.527Z" stroke="#120071" stroke-width="0.9375" stroke-linecap="round" stroke-linejoin="round"/>
<path d="M100.675 194.86C100.906 192.01 129.815 197.282 129.388 200.251C129.055 202.579 100.333 199.062 100.675 194.86Z" stroke="#120071" stroke-width="0.9375" stroke-linecap="round" stroke-linejoin="round"/>
<path d="M42.5584 185.55C40.0172 188.186 35.9559 193.05 34.5784 194.504" stroke="#120071" stroke-width="0.9375" stroke-linecap="round" stroke-linejoin="round"/>
<path d="M53.536 192.58C49.9022 199.159 60.8035 205.405 59.661 212.839" stroke="#120071" stroke-width="0.9375" stroke-linecap="round" stroke-linejoin="round"/>
<path d="M100.675 194.86C101.292 191.131 102.29 190.395 102.622 184.148" stroke="#120071" stroke-width="0.9375" stroke-linecap="round" stroke-linejoin="round"/>
<path d="M115.043 184.647C114.668 192.461 128.462 192.722 129.412 200.251" stroke="#120071" stroke-width="0.9375" stroke-linecap="round" stroke-linejoin="round"/>
<path d="M98.941 185.977C99.2497 178.14 98.2997 157.002 97.9197 153.559C74.9772 138.857 66.1422 136.102 64.7172 129.619" stroke="#120071" stroke-width="0.9375" stroke-linecap="round" stroke-linejoin="round"/>
<path d="M119.77 187.307C118.321 149.212 117.895 144.796 114.901 140.33C111.977 135.961 109.557 134.107 96.8035 126.293" stroke="#120071" stroke-width="0.9375" stroke-linecap="round" stroke-linejoin="round"/>
<path d="M35.8609 128.93C34.4359 109.906 34.5797 102.504 37.6184 98.0035C41.9934 91.5448 54.6947 84.536 68.0659 81.0035C84.8572 76.561 91.6734 77.1798 94.7372 79.9348C97.2372 82.1923 97.9872 85.7323 98.7272 109.191C103.322 109.735 114 111.022 116.16 111.404C119.223 114.087 119.746 123.279 116.16 126.675C99.3922 126.675 91.7422 126.489 88.3722 124.371C83.1672 121.1 82.1972 117.982 79.8222 96.1085C79.2772 102.76 79.0634 109.787 78.9472 113.009" stroke="#120071" stroke-width="0.9375" stroke-linecap="round" stroke-linejoin="round"/>
<path d="M97.3497 109.027L98.7247 109.19" stroke="#120071" stroke-width="0.9375" stroke-linecap="round" stroke-linejoin="round"/>
<path d="M38.4259 129.618C36.6922 129.666 35.8822 129.381 35.8372 128.93C35.7634 128.193 38.2359 127.023 43.5322 126.507C48.9472 125.978 51.7259 126.602 51.8447 127.315C51.9159 127.742 51.2984 128.265 49.4222 128.55" stroke="#120071" stroke-width="0.9375" stroke-linecap="round" stroke-linejoin="round"/>
<path d="M55.411 105.037C52.6903 105.93 49.9505 106.764 47.1935 107.537C50.1621 105.663 53.0244 103.625 55.7672 101.433" stroke="#120071" stroke-width="0.9375" stroke-linecap="round" stroke-linejoin="round"/>
<path d="M51.8685 127.338C51.631 122.351 51.2985 111.735 51.2985 106.339" stroke="#120071" stroke-width="0.9375" stroke-linecap="round" stroke-linejoin="round"/>
<path d="M35.4109 122.47C37.4772 119.501 49.5897 118.456 51.5847 120.47" stroke="#120071" stroke-width="0.9375" stroke-linecap="round" stroke-linejoin="round"/>
<path d="M109.106 110.452C112.098 113.184 111.813 123.562 108.013 126.65" stroke="#120071" stroke-width="0.9375" stroke-linecap="round" stroke-linejoin="round"/>
<path d="M54.861 121.805C59.7522 118.267 70.006 116.462 82.7772 116.295" stroke="#120071" stroke-width="0.9375" stroke-linecap="round" stroke-linejoin="round"/>
<path d="M54.7422 118.052C59.3234 114.677 69.8672 112.971 82.0384 112.97" stroke="#120071" stroke-width="0.9375" stroke-linecap="round" stroke-linejoin="round"/>
<path d="M48.8997 126.365C48.8609 127.222 49.1122 128.067 49.6122 128.764C49.9872 129.239 52.4872 131.467 53.0322 132.278C53.6322 133.177 53.9347 136.957 53.4597 137.361C52.8422 137.885 48.6859 138.311 47.0234 138.311C45.8359 138.311 46.1209 136.292 50.0397 135.295C46.7897 135.485 44.6009 134.535 44.0547 131.708" stroke="#120071" stroke-width="0.9375" stroke-linecap="round" stroke-linejoin="round"/>
<path d="M38.5209 127.386C38.3311 130.877 38.3946 134.378 38.7109 137.86" stroke="#120071" stroke-width="0.9375" stroke-linecap="round" stroke-linejoin="round"/>
<path d="M41.8697 138.168C41.7447 136.007 44.3197 135.722 44.5772 137.793C44.7697 139.337 44.8647 140.43 44.9809 141.668C45.0597 142.043 44.9863 142.434 44.777 142.755C44.5676 143.075 44.2395 143.3 43.8647 143.378C43.4899 143.457 43.0992 143.384 42.7785 143.174C42.4578 142.965 42.2334 142.637 42.1547 142.262C41.9897 140.903 41.8946 139.537 41.8697 138.168Z" stroke="#120071" stroke-width="0.9375" stroke-linecap="round" stroke-linejoin="round"/>
<path d="M50.4434 138.073C50.6572 139.073 50.8297 139.877 51.0134 140.757C51.0794 141.023 51.0685 141.302 50.9819 141.562C50.8953 141.822 50.7365 142.051 50.5242 142.224C50.3119 142.397 50.0548 142.506 49.7829 142.539C49.5109 142.571 49.2354 142.526 48.9884 142.407C48.657 142.251 48.3977 141.973 48.2634 141.632C47.9863 140.538 47.78 139.428 47.6459 138.307" stroke="#120071" stroke-width="0.9375" stroke-linecap="round" stroke-linejoin="round"/>
<path d="M39.1385 138.168C39.1385 136.078 41.6385 135.936 41.7747 137.955C41.8747 139.455 41.8997 140.52 41.941 141.705C41.9976 142.073 41.9056 142.449 41.6852 142.75C41.4647 143.05 41.1338 143.251 40.7653 143.308C40.3968 143.365 40.0209 143.273 39.7203 143.052C39.4196 142.832 39.2189 142.501 39.1622 142.132C39.0447 141.137 39.1385 140.068 39.1385 138.168Z" stroke="#120071" stroke-width="0.9375" stroke-linecap="round" stroke-linejoin="round"/>
<path d="M47.5934 138.311C47.7834 139.451 47.9059 140.353 48.0447 141.351C48.1288 141.724 48.0643 142.115 47.8649 142.442C47.6655 142.768 47.3469 143.005 46.9765 143.1C46.6061 143.196 46.213 143.144 45.8804 142.955C45.5478 142.766 45.3019 142.454 45.1947 142.087C44.9669 140.711 44.8084 139.323 44.7197 137.931C44.5272 136.078 46.3347 135.508 47.1422 136.601" stroke="#120071" stroke-width="0.9375" stroke-linecap="round" stroke-linejoin="round"/>
<path d="M128.201 125.629C128.481 123.656 126.267 123.085 125.778 124.94C125.585 125.675 125.328 126.674 125.161 127.44C125.074 127.778 125.123 128.136 125.297 128.439C125.471 128.741 125.757 128.963 126.093 129.057C126.43 129.151 126.79 129.109 127.095 128.94C127.401 128.77 127.627 128.487 127.726 128.152C127.927 127.32 128.086 126.477 128.201 125.629Z" stroke="#120071" stroke-width="0.9375" stroke-linecap="round" stroke-linejoin="round"/>
<path d="M125.683 125.035C126.195 123.072 123.87 122.348 123.261 124.203C123.007 124.969 122.762 125.737 122.525 126.507C121.968 128.373 124.498 129.192 125.018 127.552C125.305 126.65 125.528 125.628 125.683 125.035Z" stroke="#120071" stroke-width="0.9375" stroke-linecap="round" stroke-linejoin="round"/>
<path d="M123.118 124.465C123.717 122.582 121.651 121.783 120.791 123.515C120.555 123.991 120.191 124.842 119.865 125.7C119.707 126.015 119.681 126.379 119.793 126.713C119.904 127.047 120.144 127.324 120.458 127.481C120.773 127.638 121.138 127.664 121.472 127.553C121.806 127.442 122.082 127.202 122.24 126.887C122.495 126.338 122.922 125.08 123.118 124.465Z" stroke="#120071" stroke-width="0.9375" stroke-linecap="round" stroke-linejoin="round"/>
<path d="M130.695 125.985C130.758 124.061 128.67 123.61 128.32 125.438C128.175 126.198 127.957 127.688 127.916 128.098C127.933 128.403 128.056 128.693 128.265 128.916C128.474 129.138 128.754 129.281 129.057 129.318C129.36 129.355 129.667 129.283 129.923 129.117C130.179 128.951 130.368 128.699 130.457 128.407C130.582 127.605 130.661 126.796 130.695 125.985Z" stroke="#120071" stroke-width="0.9375" stroke-linecap="round" stroke-linejoin="round"/>
<path d="M111.956 184.243C110.956 151.967 111.315 146.695 108.963 143.203C105.637 138.263 101.642 136.066 83.076 125.058C80.0347 123.256 79.1335 121.235 78.991 116.433" stroke="#120071" stroke-width="0.9375" stroke-linecap="round" stroke-linejoin="round"/>
<path d="M73.7859 138.857C77.5694 146.689 80.9243 154.72 83.836 162.916" stroke="#120071" stroke-width="0.9375" stroke-linecap="round" stroke-linejoin="round"/>
<path d="M154.587 49.4148C156.226 58.7898 156.701 60.196 158.173 60.3635C159.622 60.5285 160.525 59.936 163.683 56.516C163.33 58.1585 162.657 59.7154 161.703 61.0985" stroke="#120071" stroke-width="0.9375" stroke-linecap="round" stroke-linejoin="round"/>
<path d="M161.76 46.2085C161.593 44.5698 161.047 44.2373 156.297 43.9048C151.215 43.5485 150.835 44.3798 151.357 47.0873C151.903 50.056 154.088 49.581 159.29 49.011C160.81 50.9348 161.807 51.956 161.807 50.7685C161.807 48.5598 164.111 48.6073 164.158 52.1435C164.978 53.2903 165.927 54.3389 166.986 55.2685C165.94 46.851 165.728 46.5648 161.76 46.2085Z" stroke="#120071" stroke-width="0.9375" stroke-linecap="round" stroke-linejoin="round"/>
<path d="M161.762 58.5172C161.923 60.6422 161.657 63.2172 160.121 64.0922C155.632 66.681 153.83 67.7272 152.307 69.8872C149.391 74.0235 149.576 76.7747 149.03 95.1572C143.52 99.9072 136.655 105.251 134.138 107.507" stroke="#120071" stroke-width="0.9375" stroke-linecap="round" stroke-linejoin="round"/>
<path d="M134.566 109.977C133.566 108.766 133.566 107.893 134.138 107.507C134.927 106.97 137.198 107.842 140.67 111.806C144.395 116.056 145.341 118.5 144.85 119.358C144.512 119.95 143.306 119.786 141.975 118.622" stroke="#120071" stroke-width="0.9375" stroke-linecap="round" stroke-linejoin="round"/>
<path d="M206.148 105.726C204.51 106.011 203.598 105.537 203.536 104.8C203.453 103.827 205.343 102.316 210.827 101.118C216.981 99.776 219.057 100.618 219.187 101.688C219.18 102.121 219.029 102.538 218.757 102.874C218.485 103.209 218.108 103.444 217.687 103.541" stroke="#120071" stroke-width="0.9375" stroke-linecap="round" stroke-linejoin="round"/>
<path d="M203.536 104.824C199.57 87.5098 199.161 85.7336 197.527 84.5411C195.29 82.9086 193.727 82.2611 180.76 81.0498C184.067 82.7587 187.242 84.7116 190.26 86.8923" stroke="#120071" stroke-width="0.9375" stroke-linecap="round" stroke-linejoin="round"/>
<path d="M220.375 148.357C224.75 150.994 228.117 153.012 229.518 154.01C230.35 159.26 224.246 167.215 220.303 168.046C190.663 151.35 187.103 149.186 184.037 145.796C181.118 142.564 180.095 137.317 175.273 115.634C174.222 115.571 173.187 115.339 172.21 114.945" stroke="#120071" stroke-width="0.9375" stroke-linecap="round" stroke-linejoin="round"/>
<path d="M189.001 81.9285C190.331 87.011 193.393 98.8385 194.82 107.365C195.602 112.043 196.553 118.365 197.385 123.752" stroke="#120071" stroke-width="0.9375" stroke-linecap="round" stroke-linejoin="round"/>
<path d="M155.703 72.9272C155.43 75.5643 155.43 78.2227 155.703 80.8597C155.9 82.6672 162.567 101.36 164.016 104.8C153.016 128.763 151.292 133.205 150.977 137.123C150.602 141.748 151.096 144.842 159.931 179.161C165.322 180.752 174.656 177.902 177.197 175.028C174.727 164.365 172.21 153.725 169.478 139.855C170.405 137.195 172.542 133.941 177.292 124.73" stroke="#120071" stroke-width="0.9375" stroke-linecap="round" stroke-linejoin="round"/>
<path d="M229.495 156.313C231.63 156.867 233.725 157.565 235.765 158.403C235.503 164.792 230.445 181.465 226.573 186.096C224.602 183.127 222.536 172.083 222.156 167.238" stroke="#120071" stroke-width="0.9375" stroke-linecap="round" stroke-linejoin="round"/>
<path d="M175.843 176.169C177.214 178.386 178.345 180.743 179.218 183.199C174.658 187.877 160.883 194.052 154.756 194.741C156.679 189.298 159.461 184.199 162.997 179.636" stroke="#120071" stroke-width="0.9375" stroke-linecap="round" stroke-linejoin="round"/>
<path d="M144.825 119.4C149.886 115.476 160.302 106.567 163.565 103.636" stroke="#120071" stroke-width="0.9375" stroke-linecap="round" stroke-linejoin="round"/>
<path d="M139.601 102.947C144.042 103.304 150.312 111.545 149.861 115.345" stroke="#120071" stroke-width="0.9375" stroke-linecap="round" stroke-linejoin="round"/>
<path d="M202.036 98.2447C203.713 94.606 215.217 92.401 217.65 94.3697" stroke="#120071" stroke-width="0.9375" stroke-linecap="round" stroke-linejoin="round"/>
<path d="M161.593 61.6935C162.116 62.3748 162.78 62.9348 163.541 63.3323C166.324 62.1257 168.942 60.5676 171.33 58.696" stroke="#120071" stroke-width="0.9375" stroke-linecap="round" stroke-linejoin="round"/>
<path d="M172.756 59.6035C171.756 62.881 168.267 67.821 167.436 68.9135C165.881 67.2619 164.568 65.3984 163.536 63.3785C162.645 65.2191 161.945 67.1457 161.446 69.1285C160.987 66.9633 160.946 64.7302 161.327 62.5498" stroke="#120071" stroke-width="0.9375" stroke-linecap="round" stroke-linejoin="round"/>
<path d="M162.286 66.3785C162.476 67.3735 162.812 68.3335 163.286 69.2285C163.001 71.8885 161.528 91.1035 161.528 92.3848C162.321 94.0558 163.31 95.6264 164.473 97.0635C165.75 95.6566 166.887 94.1295 167.87 92.5035C167.395 88.941 164.495 70.5348 164.12 69.2535C164.666 68.4073 165.127 67.5085 165.495 66.5698" stroke="#120071" stroke-width="0.9375" stroke-linecap="round" stroke-linejoin="round"/>
<path d="M161.878 99.1948C168.386 101.356 185.32 97.0573 191.162 90.431" stroke="#120071" stroke-width="0.9375" stroke-linecap="round" stroke-linejoin="round"/>
<path d="M163.113 102.52C169.977 104.467 185.937 100.645 192.017 93.946" stroke="#120071" stroke-width="0.9375" stroke-linecap="round" stroke-linejoin="round"/>
<path d="M160.192 106.605C160.35 101.858 160.103 97.107 159.456 92.4022" stroke="#120071" stroke-width="0.9375" stroke-linecap="round" stroke-linejoin="round"/>
<path d="M175.273 115.582C174.608 122.929 173.061 130.17 170.666 137.147" stroke="#120071" stroke-width="0.9375" stroke-linecap="round" stroke-linejoin="round"/>
<path d="M169.93 102.923C171.305 108.718 171.378 109.265 173.397 109.146" stroke="#120071" stroke-width="0.9375" stroke-linecap="round" stroke-linejoin="round"/>
<path d="M214.888 149.521C221.301 153.582 227.096 157.24 228.948 158.427" stroke="#120071" stroke-width="0.9375" stroke-linecap="round" stroke-linejoin="round"/>
<path d="M187.101 97.7222C189.903 109.597 193.086 125.605 194.083 136.197C195.024 136.845 195.974 137.478 196.933 138.097" stroke="#120071" stroke-width="0.9375" stroke-linecap="round" stroke-linejoin="round"/>
<path d="M136.703 108.148C134.4 110.072 134.233 110.503 133.236 110.547C130.885 110.651 128.896 109.887 128.082 110.785C126.556 112.556 125.151 114.429 123.878 116.39C122.853 117.89 125.66 118.931 129.103 114.941C130.118 115.467 131.232 115.775 132.373 115.844C133.514 115.914 134.657 115.744 135.728 115.345" stroke="#120071" stroke-width="0.9375" stroke-linecap="round" stroke-linejoin="round"/>
<path d="M117.49 113.253C120.458 113.681 121.073 113.82 121.931 113.325C123.967 112.151 124.806 110.7 125.968 111.045C126.445 111.183 126.918 111.33 127.417 111.496" stroke="#120071" stroke-width="0.9375" stroke-linecap="round" stroke-linejoin="round"/>
<path d="M144.208 116.604C143.163 117.53 140.646 119.762 139.583 120.807" stroke="#120071" stroke-width="0.9375" stroke-linecap="round" stroke-linejoin="round"/>
<path d="M133.45 115.844C139.625 119.026 140.788 121.069 138.722 122.945" stroke="#120071" stroke-width="0.9375" stroke-linecap="round" stroke-linejoin="round"/>
<path d="M134.97 120.285C138.508 122.09 139.595 123.107 138.461 124.66C137.817 125.535 136.941 125.562 133.592 123.235" stroke="#120071" stroke-width="0.9375" stroke-linecap="round" stroke-linejoin="round"/>
<path d="M117.3 125.253C118.226 125.348 119.342 125.491 119.936 125.586" stroke="#120071" stroke-width="0.9375" stroke-linecap="round" stroke-linejoin="round"/>
<path d="M132.12 125.391C133.26 126.151 135.848 128.621 137.06 125.13" stroke="#120071" stroke-width="0.9375" stroke-linecap="round" stroke-linejoin="round"/>
<path d="M130.552 127.742C131.597 128.004 133.497 128.668 134.186 126.742" stroke="#120071" stroke-width="0.9375" stroke-linecap="round" stroke-linejoin="round"/>
<path d="M216.551 100.43C217.145 103.018 218.758 104.99 219.801 109.555C220.133 111.332 220.19 113.151 219.967 114.946C219.823 115.311 219.565 115.619 219.232 115.826C218.899 116.034 218.508 116.128 218.117 116.096C217.858 116.075 217.606 115.998 217.378 115.872" stroke="#120071" stroke-width="0.9375" stroke-linecap="round" stroke-linejoin="round"/>
<path d="M217.43 112.471C217.525 113.506 217.525 114.547 217.43 115.582C217.311 116.676 216.002 117.626 214.43 116.582" stroke="#120071" stroke-width="0.9375" stroke-linecap="round" stroke-linejoin="round"/>
<path d="M214.461 113.326C214.536 114.266 214.552 115.21 214.508 116.152C214.484 116.509 214.355 116.851 214.139 117.135C213.923 117.42 213.628 117.636 213.291 117.755C212.954 117.875 212.59 117.893 212.242 117.808C211.895 117.723 211.58 117.539 211.336 117.277" stroke="#120071" stroke-width="0.9375" stroke-linecap="round" stroke-linejoin="round"/>
<path d="M211.278 114.062C211.423 114.981 211.471 115.912 211.421 116.841C211.396 117.244 211.22 117.624 210.926 117.902C210.633 118.18 210.245 118.336 209.841 118.339C209.437 118.342 209.046 118.192 208.749 117.918C208.451 117.644 208.269 117.268 208.238 116.865C208.037 114.61 207.64 112.377 207.051 110.191" stroke="#120071" stroke-width="0.9375" stroke-linecap="round" stroke-linejoin="round"/>
<path d="M205.863 102.662C206.133 103.515 206.26 104.405 206.238 105.298C206.143 106.32 204.172 108.386 204.172 109.526C204.235 110.688 204.612 111.812 205.265 112.776" stroke="#120071" stroke-width="0.9375" stroke-linecap="round" stroke-linejoin="round"/>
<path d="M209.758 112.637C211.302 112.162 216.408 110.856 218 110.571" stroke="#120071" stroke-width="0.9375" stroke-linecap="round" stroke-linejoin="round"/>
<path d="M85.4984 77.6285C84.4565 77.0577 83.6445 76.1433 83.201 75.041C84.861 75.301 86.7347 75.3948 87.3034 74.7785C88.3034 73.7348 88.6097 71.2673 87.8285 63.066C87.1181 63.3983 86.3776 63.662 85.6172 63.8535C85.7359 66.7285 84.7597 66.8235 84.2422 65.801C83.2647 63.8798 81.0835 65.2785 82.9835 68.2473C78.0685 72.8185 70.1609 79.5998 61.5359 83.0035" stroke="#120071" stroke-width="0.9375" stroke-linecap="round" stroke-linejoin="round"/>
<path d="M219.161 101.689C214.911 80.0523 212.411 74.9935 207.832 70.766C200.068 63.5698 191.161 62.8785 175.911 61.0285C174.202 60.806 170.025 58.0535 166.982 55.2698" stroke="#120071" stroke-width="0.9375" stroke-linecap="round" stroke-linejoin="round"/>
<path d="M209.866 138.451L228.106 134.58" stroke="#120071" stroke-width="0.9375" stroke-linecap="round" stroke-linejoin="round"/>
<path d="M209.07 134.796L205.531 135.556L207.146 142.94L210.685 142.18L209.07 134.796Z" stroke="#120071" stroke-width="0.9375" stroke-linecap="round" stroke-linejoin="round"/>
<path d="M230.872 130.165L227.333 130.925L228.925 138.305L232.463 137.545L230.872 130.165Z" stroke="#120071" stroke-width="0.9375" stroke-linecap="round" stroke-linejoin="round"/>
<path d="M231.658 133.835L237.133 132.665L236.908 115.582" stroke="#120071" stroke-width="0.9375" stroke-linecap="round" stroke-linejoin="round"/>
<path d="M206.317 139.226L200.862 140.364L194.091 124.692" stroke="#120071" stroke-width="0.9375" stroke-linecap="round" stroke-linejoin="round"/>
<path d="M39.091 142.206L39.1385 137.741C37.9934 137.909 36.9588 138.516 36.2538 139.434C35.5489 140.351 35.2291 141.508 35.3622 142.657L36.0622 147.872L39.7685 147.397L39.091 142.206Z" stroke="#120071" stroke-width="0.9375" stroke-linejoin="round"/>
<path d="M54.786 140.282C54.6493 139.202 54.1145 138.211 53.286 137.503C52.3658 137.829 51.4082 138.036 50.436 138.121C50.6372 138.996 50.701 139.306 50.911 140.353C51.106 140.548 51.1547 141.44 51.7547 145.912L55.4597 145.437L54.786 140.282Z" stroke="#120071" stroke-width="0.9375" stroke-linejoin="round"/>
</svg>
