<svg width="251" height="251" viewBox="0 0 251 251" fill="none" xmlns="http://www.w3.org/2000/svg">
<path d="M132.757 156.759C153.21 155.721 171.949 155.251 174.97 156.945C176.527 157.82 178.948 169.32 180.06 177.011C186.343 176.261 194.238 175.571 202.125 175.034C200.954 169.116 200.232 165.409 197.574 159.691C197.172 158.825 198.274 158.475 198.723 159.266C201.386 164.141 203.174 169.444 204.007 174.936C214.685 174.235 225.222 173.811 231.825 173.811C231.075 167.349 226.922 152.456 219.475 144.82C213.735 138.934 202.6 133.695 192.745 132.455C192.592 133.821 192.065 135.118 191.223 136.204C190.38 137.29 189.255 138.123 187.97 138.611C182.705 140.68 173.095 141.224 164.523 136.515C155.479 139.095 138.905 148.937 132.757 156.759Z" fill="#38A1FF"/>
<path d="M243.004 202.756C189.075 203.77 135.39 203.57 81.4903 203.631C80.4003 203.631 80.1541 205.335 81.2816 205.355C135.06 206.349 189.48 205.179 243.25 204.52C244.399 204.51 244.147 202.735 243.004 202.756Z" fill="#38A1FF"/>
<path d="M110.22 96.2023C115.757 96.306 142.738 95.8035 145.607 95.6798C146.472 95.6423 146.449 94.1498 145.607 94.1498C141.755 94.1498 116.418 94.6385 110.22 94.9635C110.07 94.9838 109.933 95.0577 109.833 95.1716C109.734 95.2855 109.679 95.4316 109.679 95.5829C109.679 95.7342 109.734 95.8803 109.833 95.9942C109.933 96.1081 110.07 96.182 110.22 96.2023Z" fill="#38A1FF"/>
<path d="M88.1216 89.291C87.7191 89.501 80.7578 97.8685 83.9653 96.8735C84.4203 96.7323 88.9653 90.9735 89.1891 89.941C89.2159 89.8072 89.2009 89.6684 89.1462 89.5434C89.0914 89.4184 88.9995 89.3132 88.8829 89.2423C88.7663 89.1713 88.6307 89.1379 88.4945 89.1466C88.3584 89.1553 88.2281 89.2058 88.1216 89.291Z" fill="#38A1FF"/>
<path d="M72.9528 70.2823C75.1916 70.3873 120.778 70.2735 123.495 70.006C123.881 69.9549 124.234 69.7623 124.486 69.4656C124.738 69.1689 124.871 68.7892 124.859 68.4001C124.847 68.0109 124.691 67.6401 124.422 67.3595C124.152 67.0789 123.787 66.9084 123.399 66.881C110.713 67.0385 84.3403 67.1035 73.0241 67.351C71.3266 67.3898 71.1841 70.2023 72.9528 70.2823Z" fill="#38A1FF"/>
<path d="M136.764 118.387C133.83 118.387 111.524 118.137 109.944 118.589C109.407 118.744 109.194 119.614 109.839 119.797C111.524 120.281 133.714 120.036 136.778 120.036C139.842 120.036 142.815 120.146 145.815 120.036C146.733 120.002 146.665 118.465 145.755 118.425C142.77 118.292 139.755 118.387 136.764 118.387Z" fill="#38A1FF"/>
<path d="M109.593 130.066C109.403 130.122 109.244 130.251 109.149 130.424C109.054 130.597 109.031 130.801 109.085 130.991C109.343 131.866 108.187 131.566 146.203 132.2C146.413 132.178 146.607 132.08 146.748 131.924C146.89 131.767 146.968 131.564 146.968 131.353C146.968 131.142 146.89 130.939 146.748 130.782C146.607 130.626 146.413 130.527 146.203 130.506C109.733 129.917 111.997 129.88 109.593 130.066Z" fill="#38A1FF"/>
<path d="M145.39 108.395C145.594 108.381 145.785 108.292 145.926 108.146C146.068 107.999 146.15 107.805 146.156 107.601C146.163 107.397 146.093 107.199 145.961 107.043C145.829 106.888 145.644 106.787 145.442 106.761C140.017 106.611 114.772 106.401 110.192 107.314C109.442 107.462 109.609 108.555 110.325 108.619C114.199 108.967 120.122 107.666 145.39 108.395Z" fill="#38A1FF"/>
<path d="M178.732 86.1873C178.799 75.4198 179.299 61.9873 178.395 51.5398C178.37 51.3829 178.288 51.2408 178.165 51.1408C178.042 51.0409 177.885 50.9903 177.727 50.9986C177.568 51.007 177.418 51.0739 177.306 51.1863C177.194 51.2987 177.127 51.4486 177.119 51.6073C176.825 56.6198 177.102 79.9098 177.119 86.3073C177.122 87.3585 178.725 87.2398 178.732 86.1873Z" fill="#38A1FF"/>
<path d="M84.4003 136.072C85.9494 137.769 87.5963 139.374 89.3328 140.879C90.0828 141.585 91.2378 140.459 90.4828 139.754C88.8643 138.125 87.1629 136.582 85.3853 135.129C84.8441 134.782 83.9828 135.491 84.4003 136.072Z" fill="#38A1FF"/>
<path d="M15.1216 51.5398C15.1216 50.5998 13.6416 50.4285 13.6291 51.391C13.1366 91.211 13.7941 137.527 15.6966 177.141C15.7491 178.239 17.4466 177.97 17.3903 176.88C15.3803 134.976 15.0641 93.4785 15.1216 51.5398Z" fill="#38A1FF"/>
<path d="M33.9253 140.394C33.5053 141.019 34.4791 141.814 34.9703 141.23C35.6041 140.48 39.2791 136.221 39.0953 135.305C38.5891 132.877 34.6428 139.332 33.9253 140.394Z" fill="#38A1FF"/>
<path d="M61.4241 120.194C60.7828 120.075 56.7153 123.685 55.8941 124.469C48.2153 119.447 48.9791 120.684 49.0741 123.719C49.103 125.795 49.2474 127.867 49.5066 129.927C49.6003 130.579 50.5903 130.465 50.6316 129.831C50.7878 127.51 50.4891 125.196 50.4516 122.876C57.2128 127.001 55.1228 126.876 61.4366 121.704C62.1866 122.532 65.7578 126.007 66.8391 125.876C67.7141 125.767 70.6603 121.809 71.3616 120.965C71.3616 122.756 71.4191 127.869 71.9503 129.316C72.2253 130.066 72.9503 129.801 72.9878 129.055C73.0803 127.465 72.8878 123.696 72.8916 121.861C72.8916 119.771 72.8853 119.236 72.0103 117.986C70.1103 115.271 65.2978 108.62 62.3616 105.01C59.7753 101.829 59.6616 101.76 57.8466 104.57C55.0503 108.906 50.3566 117.32 49.6391 118.92C49.3353 119.594 50.3741 119.911 50.7353 119.412C51.9378 117.751 54.6603 112.867 55.9141 110.719C58.7328 110.831 61.5557 110.783 64.3691 110.576C66.6811 113.327 68.891 116.162 70.9941 119.076L66.6891 124.3C66.1028 123.835 62.0728 120.314 61.4241 120.194Z" fill="#38A1FF"/>
<path d="M82.9603 176.157C76.2441 175.782 21.5528 176.076 19.4191 176.407C19.2613 176.458 19.1248 176.56 19.031 176.697C18.9372 176.833 18.8914 176.997 18.9007 177.163C18.9099 177.329 18.9738 177.486 19.0823 177.612C19.1908 177.737 19.3378 177.823 19.5003 177.856C40.1791 177.915 62.1253 177.751 82.8403 177.774C83.8478 177.774 84.0203 176.22 82.9603 176.157Z" fill="#38A1FF"/>
<path d="M36.5603 98.761C37.3003 99.5873 38.4353 98.5523 37.8203 97.851C36.3278 96.1573 33.1303 92.3111 31.6566 91.0161C31.0728 90.5023 30.2816 91.3061 30.6941 91.9186C31.7541 93.4998 35.0991 97.131 36.5603 98.761Z" fill="#38A1FF"/>
<path d="M60.6216 91.4073C60.7153 88.1629 60.5233 84.9167 60.0478 81.706C59.9819 81.5905 59.884 81.4966 59.7659 81.4357C59.6478 81.3747 59.5145 81.3493 59.3822 81.3625C59.2499 81.3758 59.1243 81.4271 59.0206 81.5102C58.9169 81.5934 58.8395 81.7048 58.7978 81.831C58.6966 85.0717 58.8538 88.3153 59.2678 91.531C59.3055 91.6923 59.4002 91.8345 59.5345 91.9314C59.6688 92.0283 59.8336 92.0734 59.9985 92.0583C60.1635 92.0432 60.3174 91.969 60.4319 91.8494C60.5464 91.7297 60.6138 91.5727 60.6216 91.4073Z" fill="#38A1FF"/>
<path d="M61.7153 139.804C61.7153 140.841 61.4391 147.729 61.8116 148.632C61.8774 148.746 61.9721 148.841 62.0861 148.907C62.2001 148.972 62.3293 149.007 62.4609 149.007C62.5925 149.007 62.7218 148.972 62.8358 148.907C62.9498 148.841 63.0445 148.746 63.1103 148.632C63.4991 147.64 63.0578 141.17 63.0066 139.804C62.9391 139.072 61.7153 139.057 61.7153 139.804Z" fill="#38A1FF"/>
<path d="M30.4403 117.209C45.6216 88.6573 80.2266 91.6573 92.9528 114.895C77.9178 137.841 48.4628 141.315 30.3716 119.252C29.8066 118.565 29.1078 119.444 29.6216 120.164C45.5266 142.289 79.5103 139.401 93.5428 117.039C94 116.47 94.2669 115.772 94.3057 115.044C94.3445 114.316 94.1533 113.594 93.7591 112.98C78.3278 86.5523 39.6803 91.306 29.3953 116.532C29.0891 117.282 30.0741 117.899 30.4403 117.209Z" fill="#38A1FF"/>
<path fill-rule="evenodd" clip-rule="evenodd" d="M168.814 88.2098C164.904 88.9598 161.455 97.501 165.769 101.5C168.41 103.949 180.574 104.052 187.948 103.739C188.001 104.641 188.194 105.53 188.522 106.372C188.815 107.122 189.695 107.36 189.477 106.007C189.357 105.237 189.302 104.458 189.313 103.679C190.459 103.629 191.604 103.545 192.745 103.429C192.547 105.094 192.26 106.748 191.888 108.384C191.682 109.28 192.688 109.447 193.029 108.592C194.076 105.888 194.499 102.983 194.268 100.092C193.823 93.721 175.957 86.8373 168.814 88.2098ZM170.045 91.5748C168.247 91.986 167.822 94.7185 167.658 96.1798C167.377 98.6798 165.783 96.9298 166.165 94.731C166.458 93.0735 167.874 90.3735 169.94 90.6423C170.06 90.6359 170.178 90.6754 170.269 90.7529C170.361 90.8304 170.419 90.9399 170.433 91.059C170.446 91.1782 170.413 91.2979 170.341 91.3938C170.269 91.4897 170.164 91.5544 170.045 91.5748Z" fill="#191919"/>
<path fill-rule="evenodd" clip-rule="evenodd" d="M183.433 113.932C184.429 112.245 185.114 110.392 185.455 108.462C187.134 108.766 188.736 109.404 190.164 110.337C191.014 110.704 191.337 109.587 190.914 109.241C189.38 107.991 187.505 107.232 185.533 107.062C184.623 105.339 177.705 104.937 176.638 106.756C176.377 106.609 176.087 106.52 175.789 106.493C175.491 106.466 175.19 106.502 174.907 106.6C174.363 105.107 168.228 104.734 166.699 106.457C164.938 106.264 164.207 107.89 166.534 107.875C166.62 109.49 166.919 111.087 167.423 112.625C168.025 113.857 172.358 113.839 173.22 113.215C174.247 112.474 174.713 109.237 175.004 107.991C175.427 107.858 175.883 107.885 176.288 108.066C176.279 109.737 176.469 111.403 176.854 113.029C177.517 114.346 182.472 115.067 183.433 113.932ZM172.747 111.782C172.543 112.274 172.359 112.391 170.717 112.326C167.942 112.217 168.523 112.819 167.673 107.23C169.628 106.566 171.747 106.566 173.702 107.23C173.675 108.794 173.351 110.339 172.747 111.782ZM177.97 112.349C177.661 110.812 177.55 109.242 177.642 107.677C179.785 106.912 182.139 106.984 184.232 107.879C184.114 109.108 183.799 110.31 183.298 111.439C182.588 112.992 182.47 113.196 180.232 113.014C179.157 112.926 178.122 112.686 177.97 112.349Z" fill="#191919"/>
<path fill-rule="evenodd" clip-rule="evenodd" d="M179.03 111.35C179.264 112.192 180.905 112.291 180.523 109.857C180.304 108.472 178.352 108.907 179.03 111.35Z" fill="#191919"/>
<path fill-rule="evenodd" clip-rule="evenodd" d="M193.208 110.342C188.925 110.701 186.812 118.546 184.537 119.297C182.947 119.824 179.38 117.536 175.777 117.29C172.173 117.044 170.12 118.566 169.448 118.245C168.775 117.924 169.239 115.111 169.239 114.455C169.239 113.799 168.882 113.44 168.247 114.887C167.612 116.335 161.419 130.23 164.113 133.969C167.963 139.311 183.674 140.442 188.552 136.767C194.667 132.16 189.463 117.362 190.969 113.507C191.252 112.956 191.704 112.51 192.258 112.233C192.813 111.957 193.441 111.865 194.052 111.97C196.112 112.862 195.545 118.97 192.253 118.014C191.425 117.775 191.238 118.815 192.003 119.216C194.239 120.392 196.434 118.559 196.727 115.485C196.945 113.157 196.155 110.096 193.208 110.342ZM176.157 124.217C173.053 124.217 172.425 122.986 172.164 120.967C174.851 121.545 177.634 121.496 180.299 120.826C180.015 122.671 179.622 124.222 176.157 124.222V124.217Z" fill="#191919"/>
<path fill-rule="evenodd" clip-rule="evenodd" d="M174.672 111.104C174.097 112.428 173.667 113.811 173.388 115.229C173.079 116.91 175.315 116.915 176.575 116.721C177.325 116.606 177.463 115.751 176.642 115.691C176.038 115.646 174.852 115.616 174.739 115.407C174.842 114.013 175.11 112.635 175.538 111.304C175.712 110.754 174.909 110.539 174.672 111.104Z" fill="#191919"/>
<path fill-rule="evenodd" clip-rule="evenodd" d="M171.122 111.407C171.817 111.142 171.872 109.271 171.278 108.922C169.779 108.032 169.57 111.992 171.122 111.407Z" fill="#191919"/>
<path fill-rule="evenodd" clip-rule="evenodd" d="M183.35 45.5698C125.54 45.6148 64.1704 45.481 7.24035 45.966C6.27035 45.9735 6.24786 48.466 7.18036 48.4723C64.8116 48.8335 125.51 48.3835 183.29 48.3385C184.328 48.3373 184.35 45.5698 183.35 45.5698Z" fill="#191919"/>
<path fill-rule="evenodd" clip-rule="evenodd" d="M117.488 178.637C107.613 178.05 92.3166 176.117 83.1016 172.161C81.9166 171.651 76.0628 172.607 69.4166 169.536C68.7216 169.216 68.4453 170.195 69.0953 170.596C72.4916 172.689 76.7816 173.246 80.6991 173.372C81.752 173.345 82.7954 173.578 83.7366 174.051C94.5942 177.945 106.029 179.988 117.563 180.095C118.51 180.109 118.48 178.697 117.488 178.637Z" fill="#191919"/>
<path fill-rule="evenodd" clip-rule="evenodd" d="M229.759 175.802C229.567 174.75 228.148 175.121 228.325 176.167C228.936 179.923 228.694 183.768 227.617 187.417C225.065 196.309 217.558 194.882 210.043 194.536C202.155 194.174 191.293 193.417 184.478 193.104C184.327 193.084 184.175 193.123 184.053 193.214C183.931 193.305 183.85 193.439 183.826 193.589C183.802 193.739 183.838 193.892 183.925 194.016C184.012 194.141 184.145 194.226 184.294 194.254C190.85 195.295 204.855 195.911 210.312 196.17C217.774 196.525 226.099 197.52 228.878 188.88C230.245 184.66 230.548 180.167 229.759 175.802Z" fill="#191919"/>
<path fill-rule="evenodd" clip-rule="evenodd" d="M180.843 180.257C190.5 178.721 200.229 177.673 209.992 177.116C210.149 177.102 210.296 177.027 210.4 176.908C210.504 176.788 210.557 176.633 210.55 176.475C210.542 176.316 210.473 176.167 210.358 176.059C210.243 175.95 210.09 175.89 209.932 175.891C200.102 176.294 190.306 177.291 180.597 178.876C180.413 178.909 180.251 179.014 180.145 179.167C180.039 179.32 179.998 179.508 180.031 179.692C180.064 179.875 180.169 180.037 180.322 180.143C180.475 180.249 180.663 180.29 180.847 180.257H180.843Z" fill="#191919"/>
<path fill-rule="evenodd" clip-rule="evenodd" d="M78.0278 169.445C78.1318 169.444 78.2346 169.422 78.33 169.381C78.4254 169.34 78.5115 169.279 78.5831 169.204C78.6547 169.129 78.7104 169.04 78.7469 168.942C78.7833 168.845 78.7998 168.741 78.7952 168.637C78.7907 168.533 78.7653 168.432 78.7205 168.338C78.6757 168.244 78.6124 168.16 78.5345 168.091C78.4565 168.022 78.3655 167.97 78.2669 167.937C78.1682 167.904 78.064 167.891 77.9603 167.9C73.3203 168.049 70.9791 166.731 67.9166 164.556C67.4316 164.212 66.9166 164.819 67.2916 165.306C69.4716 168.187 74.5578 169.58 78.0278 169.445Z" fill="#191919"/>
<path fill-rule="evenodd" clip-rule="evenodd" d="M85.7466 161.532C86.3116 162.512 87.4966 162.645 88.5516 162.884C94.7828 164.3 109.042 163.827 115.655 163.75C116.595 163.739 116.405 162.524 115.439 162.532C110.61 162.581 96.0366 162.719 88.8053 161.384C87.4703 161.134 87.5391 161.331 86.8578 160.259C85.5703 158.226 83.6503 155.74 81.3216 155.699C80.6266 155.686 80.5716 156.356 81.1641 156.654C83.2213 157.686 84.8453 159.415 85.7466 161.532Z" fill="#191919"/>
<path fill-rule="evenodd" clip-rule="evenodd" d="M81.6216 161.81C78.3941 160.862 73.8328 159.342 71.3241 156.101C70.5741 155.129 69.9366 155.885 70.3091 156.669C71.8716 159.959 77.5916 162.919 80.8753 163.044C82.6916 163.12 82.1866 161.975 81.6216 161.81Z" fill="#191919"/>
<path fill-rule="evenodd" clip-rule="evenodd" d="M68.5503 159.259C68.4472 159.133 68.3 159.052 68.1389 159.032C67.9778 159.011 67.8151 159.054 67.6842 159.15C67.5533 159.246 67.4641 159.388 67.435 159.548C67.4059 159.708 67.4391 159.873 67.5278 160.009C68.7193 161.718 70.2667 163.149 72.0636 164.204C73.8605 165.259 75.8645 165.913 77.9378 166.12C78.1011 166.125 78.2618 166.078 78.3955 165.984C78.5291 165.89 78.6284 165.754 78.6782 165.599C78.728 165.443 78.7256 165.276 78.6714 165.121C78.6172 164.967 78.5141 164.835 78.3778 164.745C77.2816 164.272 72.6216 163.969 68.5503 159.259Z" fill="#191919"/>
<path fill-rule="evenodd" clip-rule="evenodd" d="M212.454 197.502C210.215 197.211 184.247 197.786 183.044 197.294C181.842 196.801 175.622 161.377 173.997 159.05C172.372 156.722 121.185 158.199 118.858 159.542C116.53 160.886 124.217 201.349 126.208 202.167C127.984 202.896 209.785 201.884 212.458 201.742C215.13 201.601 214.693 197.794 212.454 197.502ZM147.964 185.861C140.98 186.442 138.792 174.986 145.77 173.847C149.083 173.306 152.002 176.244 152.62 179.861C152.749 180.566 152.728 181.29 152.557 181.987C152.387 182.683 152.072 183.335 151.633 183.901C151.193 184.468 150.64 184.935 150.007 185.272C149.375 185.61 148.679 185.811 147.964 185.861Z" fill="#191919"/>
</svg>
