<svg width="251" height="251" viewBox="0 0 251 251" fill="none" xmlns="http://www.w3.org/2000/svg">
<path d="M185.474 65.98C184.29 65.98 183.155 65.5096 182.317 64.6724C181.48 63.8352 181.01 62.6997 181.01 61.5157C181.01 60.3317 181.48 59.1962 182.317 58.359C183.155 57.5217 184.29 57.0514 185.474 57.0514" stroke="white" stroke-width="17.8571" stroke-linecap="round" stroke-linejoin="round"/>
<path d="M185.474 65.98C186.658 65.98 187.794 65.5096 188.631 64.6724C189.468 63.8352 189.938 62.6997 189.938 61.5157C189.938 60.3317 189.468 59.1962 188.631 58.359C187.794 57.5217 186.658 57.0514 185.474 57.0514" stroke="white" stroke-width="17.8571" stroke-linecap="round" stroke-linejoin="round"/>
<path d="M16.2776 62.1764C16.2776 49.9907 21.1184 38.304 29.735 29.6874C38.3516 21.0708 50.0383 16.23 62.2241 16.23H184.76C190.794 16.23 196.768 17.4184 202.343 19.7274C207.917 22.0365 212.982 25.4209 217.249 29.6874C221.515 33.9539 224.9 39.019 227.209 44.5935C229.518 50.168 230.706 56.1426 230.706 62.1764V184.712C230.706 196.898 225.865 208.585 217.249 217.201C208.632 225.818 196.946 230.659 184.76 230.659H62.2062C50.0204 230.659 38.3338 225.818 29.7172 217.201C21.1005 208.585 16.2598 196.898 16.2598 184.712V62.1586L16.2776 62.1764Z" stroke="white" stroke-width="17.8571" stroke-linecap="round" stroke-linejoin="round"/>
<path d="M77.9563 123.444C77.9563 129.424 79.1341 135.345 81.4225 140.87C83.7109 146.395 87.065 151.415 91.2934 155.643C95.5218 159.871 100.542 163.225 106.066 165.514C111.591 167.802 117.512 168.98 123.492 168.98C129.472 168.98 135.393 167.802 140.918 165.514C146.442 163.225 151.462 159.871 155.691 155.643C159.919 151.415 163.273 146.395 165.562 140.87C167.85 135.345 169.028 129.424 169.028 123.444C169.028 111.367 164.23 99.7853 155.691 91.2457C147.151 82.7061 135.569 77.9086 123.492 77.9086C111.415 77.9086 99.833 82.7061 91.2934 91.2457C82.7538 99.7853 77.9563 111.367 77.9563 123.444Z" stroke="white" stroke-width="17.8571" stroke-linecap="round" stroke-linejoin="round"/>
</svg>
