<svg xmlns="http://www.w3.org/2000/svg" width="250" height="250" fill="none" viewBox="0 0 250 250"><g clip-path="url(#clip0_696_488)"><path fill="#fff" fill-rule="evenodd" d="M52.0179 42.1786C56.6607 37.3929 59.2143 31 59.1607 24.3571C58.9209 17.9093 56.227 11.7965 51.6297 7.26902C47.0325 2.74151 40.8794 0.141256 34.4286 0C27.9582 0.13859 21.7827 2.7322 17.1537 7.2551C12.5247 11.778 9.78857 17.8918 9.5 24.3571C9.59177 30.9937 12.2303 37.3412 16.87 42.0873C21.5097 46.8333 27.7958 49.615 34.4286 49.8571C41.0712 49.701 47.3873 46.9438 52.0179 42.1786ZM29.8214 82.6786C19.3393 82.4464 12.1964 82.2857 12.1964 95.1071V237.821C12.1964 250.375 19.0179 250.125 28.8393 249.75C30.625 249.679 32.5 249.607 34.4464 249.607C36.4107 249.607 38.2857 249.679 40.0536 249.75C49.8393 250.107 56.5179 250.375 56.5179 237.821V95.125C56.5179 82.3036 49.5179 82.4464 39.0893 82.6964C36.0004 82.7673 32.9103 82.7494 29.8214 82.6786ZM102.75 82.9464C98 83.8929 94.9464 86.9286 94.9464 95.1071V237.821C94.9464 250.375 101.5 250.125 111.339 249.75C113.125 249.679 115.036 249.607 117.018 249.607C119.018 249.607 120.911 249.679 122.714 249.75C132.607 250.107 139.286 250.375 139.286 237.821V161.714C138.905 157.824 139.355 153.897 140.607 150.194C141.858 146.491 143.882 143.096 146.545 140.234C149.207 137.372 152.448 135.109 156.051 133.594C159.655 132.079 163.539 131.347 167.446 131.446C171.373 131.211 175.304 131.825 178.972 133.245C182.641 134.665 185.96 136.858 188.705 139.676C191.45 142.494 193.556 145.869 194.879 149.574C196.203 153.278 196.713 157.224 196.375 161.143V237.232C196.375 249.804 202.911 249.554 212.75 249.179C214.536 249.107 216.446 249.036 218.429 249.036C220.429 249.036 222.321 249.107 224.125 249.179C233.964 249.536 240.5 249.804 240.5 237.25V139.821C240.866 131.822 239.544 123.836 236.62 116.381C233.697 108.927 229.236 102.171 223.53 96.5539C217.823 90.9366 210.998 86.5834 203.498 83.7775C195.999 80.9716 187.992 79.7758 180 80.2679C171.86 79.5273 163.666 80.8887 156.203 84.2217C148.739 87.5547 142.257 92.7477 137.375 99.3036C137.571 92.2679 135.286 82.9464 129.589 82.9464C127.946 82.9464 125.429 82.8571 122.571 82.7679C115.429 82.5536 106.143 82.2679 102.75 82.9464Z" clip-rule="evenodd"/></g><defs><clipPath id="clip0_696_488"><rect width="250" height="250" fill="#fff"/></clipPath></defs></svg>