<svg width="250" height="250" viewBox="0 0 250 250" fill="none" xmlns="http://www.w3.org/2000/svg">
<path d="M169.79 71.0575C169.124 66.725 165.458 62.25 162.03 60.0837C161.673 59.8462 161.316 59.6312 160.959 59.4175C153.199 64.7925 139.01 73.4862 122.346 76.1287C121.061 76.3425 119.49 76.0325 118.514 76.9137C115.444 79.6512 114.825 89.2212 107.231 89.435C106.183 92.1025 105.231 94.6725 104.208 96.8625C105.449 95.1237 114.52 96.7725 116.824 97.2912C119.084 97.7912 128.833 100.447 128.418 102.529C130.131 98.8375 129.465 95.1012 128.346 91.1962C141.939 88.5787 160.769 78.9612 169.79 71.0575Z" fill="#FECFC4"/>
<path d="M50.9088 111.217C48.4911 113.541 45.4386 115.096 42.1373 115.685C38.836 116.274 35.4342 115.871 32.362 114.527C29.2899 113.182 26.6854 110.957 24.8779 108.132C23.0704 105.308 22.1411 102.011 22.2076 98.6578C22.274 95.305 23.3332 92.0473 25.2511 89.2965C27.1691 86.5457 29.8597 84.4254 32.9827 83.2038C36.1057 81.9821 39.5208 81.714 42.7962 82.4334C46.0715 83.1527 49.06 84.8271 51.3838 87.245C52.9281 88.8494 54.1409 90.7426 54.9529 92.8162C55.7649 94.8898 56.1602 97.1032 56.1161 99.3297C56.072 101.556 55.5893 103.752 54.6958 105.792C53.8023 107.832 52.5154 109.675 50.9088 111.217Z" fill="#FECFC4"/>
<path d="M233.111 177.847C234.825 171.92 240.539 173.729 243.681 170.157C244.253 175.61 241.253 181.085 235.825 181.346L233.111 177.847Z" fill="#FECFC4"/>
<path d="M103.921 189.583C101.755 190.845 97.7088 188.226 93.2812 183.226C93.3586 184.952 93.8481 186.634 94.7087 188.131C97.7087 193.749 97.5663 207.604 100.899 206.631C101.828 206.345 102.923 201.631 103.899 196.229C104.404 193.618 105.072 191.042 105.899 188.515C105.485 188.726 104.336 189.306 103.921 189.583Z" fill="#6153BD"/>
<path d="M117.776 70.2013C118.213 71.4722 118.857 72.6623 119.681 73.7238C121.775 73.415 124.102 72.78 124.536 71.82C124.611 71.6575 124.676 71.4913 124.727 71.32C124.18 73.0575 121.014 71.8913 117.776 70.2013Z" fill="#6153BD"/>
<path d="M120.585 57.4175C116.371 52.99 102.636 56.465 93.3287 63.2025C83.9737 69.9625 86.6637 76.295 98.78 73.3913C98.0662 73.605 90.305 75.9375 85.235 81.7663C77.7837 90.3363 84.2587 93.6213 92.61 91.9075C102.584 89.86 111.154 81.6713 114.057 76.005C115.391 72.6666 116.296 69.1725 116.75 65.6063C113.275 62.7738 115.394 60.2025 117.297 62.155C118.321 63.2025 119.464 62.7025 118.202 59.28C119.474 58.4913 121 58.2388 120.585 57.4175Z" fill="#6153BD"/>
<path d="M152.365 195.82C151.925 190.168 151.989 184.487 152.555 178.846C148.038 180.122 143.247 180.047 138.772 178.633C138.867 182.585 137.63 184.584 138.654 187.036C139.269 188.411 140.141 189.655 141.224 190.701C145.7 195.225 149.532 208.555 152.46 206.651C153.27 206.125 152.96 201.295 152.365 195.82Z" fill="#6153BD"/>
<path d="M107.588 96.1013C107.374 97.2063 107.037 98.2838 106.587 99.3151C102.707 97.3863 103.613 96.1251 107.588 96.1013Z" fill="#6153BD"/>
<path d="M128.441 102.5C128.345 102.953 127.702 103.239 126.631 103.375C127.036 102.638 127.394 101.97 127.702 101.304C128.25 101.766 128.511 102.171 128.441 102.5Z" fill="#6153BD"/>
<path d="M139.105 139.021L136.605 146.186C136.51 143.401 136.415 140.664 136.366 137.974L139.105 139.021Z" fill="#6153BD"/>
<path d="M53.6137 189.606C47.2212 178.664 38.7387 169.344 34.7312 170.888C29.3075 172.978 36.6662 189.738 40.8862 197.058C47.98 209.341 56.55 217.673 60.125 215.75C65.3212 212.855 56.8325 195.115 53.6137 189.606Z" fill="#6153BD"/>
<path d="M97.5662 163.826C90.52 151.638 81.9737 143.401 78.45 145.451C74.9037 147.498 77.76 159.02 84.7825 171.208C91.805 183.395 100.375 191.609 103.897 189.583C107.445 187.536 104.589 176.014 97.5662 163.826Z" fill="#6153BD"/>
<path d="M105.898 188.511C105.073 191.039 104.405 193.615 103.897 196.225C102.932 201.63 101.829 206.35 100.898 206.628C97.5713 207.628 97.6962 193.753 94.7075 188.128C93.8449 186.631 93.3553 184.948 93.28 183.223" stroke="#120071" stroke-width="0.9375" stroke-linecap="round" stroke-linejoin="round"/>
<path d="M188.286 98.9337C187.811 98.165 187.173 97.5101 186.417 97.0153C185.661 96.5206 184.806 96.1982 183.911 96.0709C183.017 95.9437 182.105 96.0147 181.241 96.2789C180.377 96.5432 179.582 96.9942 178.911 97.6C178.645 96.6959 178.175 95.8653 177.536 95.1723C176.898 94.4793 176.108 93.9426 175.229 93.6037C173.962 93.1151 172.569 93.0607 171.268 93.4492C169.968 93.8376 168.833 94.6468 168.041 95.75C167.563 96.4116 167.22 97.1614 167.032 97.9562C166.294 97.3995 165.439 97.0169 164.531 96.8369C163.624 96.6568 162.687 96.6841 161.792 96.9165C160.897 97.1489 160.065 97.5805 159.36 98.1792C158.655 98.7778 158.094 99.528 157.719 100.374C157.218 101.505 157.071 102.762 157.296 103.979C156.493 103.768 155.656 103.721 154.834 103.84C154.012 103.959 153.222 104.241 152.511 104.67C151.709 105.162 151.03 105.833 150.528 106.629C150.026 107.425 149.713 108.326 149.614 109.262C149.515 110.199 149.633 111.145 149.958 112.029C150.282 112.912 150.806 113.709 151.487 114.359C150.229 114.854 149.169 115.75 148.471 116.909C147.773 118.068 147.477 119.425 147.629 120.769C147.727 121.66 148.021 122.519 148.487 123.285C149.139 124.362 150.112 125.207 151.269 125.703C152.426 126.198 153.71 126.318 154.939 126.046L188.17 105.671C189.006 105.167 190.022 101.737 188.286 98.9337Z" stroke="#120071" stroke-width="0.9375" stroke-linecap="round" stroke-linejoin="round"/>
<path d="M163.077 108.384C163.663 108.937 164.097 109.631 164.337 110.4C164.577 111.168 164.615 111.986 164.448 112.774C164.28 113.562 163.913 114.293 163.382 114.898C162.85 115.503 162.172 115.961 161.412 116.229C160.394 116.586 159.284 116.582 158.269 116.216" stroke="#120071" stroke-width="0.9375" stroke-linecap="round" stroke-linejoin="round"/>
<path d="M177.884 104.195C177.751 105.158 177.325 106.056 176.662 106.767C176 107.478 175.135 107.967 174.184 108.167C173.233 108.368 172.244 108.27 171.351 107.887C170.458 107.504 169.705 106.855 169.195 106.028C168.979 105.67 168.811 105.286 168.695 104.885" stroke="#120071" stroke-width="0.9375" stroke-linecap="round" stroke-linejoin="round"/>
<path d="M178.907 97.6C178.268 98.2036 177.736 98.9127 177.336 99.6962" stroke="#120071" stroke-width="0.9375" stroke-linecap="round" stroke-linejoin="round"/>
<path d="M153.655 113.958C152.917 113.995 152.186 114.13 151.484 114.36" stroke="#120071" stroke-width="0.9375" stroke-linecap="round" stroke-linejoin="round"/>
<path d="M167.029 97.9575C166.873 98.7333 166.847 99.5296 166.952 100.314" stroke="#120071" stroke-width="0.9375" stroke-linecap="round" stroke-linejoin="round"/>
<path d="M159.651 105.084C158.937 104.578 158.138 104.204 157.292 103.98" stroke="#120071" stroke-width="0.9375" stroke-linecap="round" stroke-linejoin="round"/>
<path d="M196.761 112.693C194.995 109.784 191.35 109.265 190.715 109.741L157.459 130.143C156.508 130.714 155.201 134.17 157.008 137.093C157.478 137.856 158.109 138.508 158.858 139.002C159.606 139.496 160.453 139.82 161.34 139.953C162.227 140.084 163.133 140.019 163.992 139.763C164.852 139.506 165.645 139.064 166.315 138.468C166.697 139.779 167.506 140.925 168.614 141.724C169.721 142.523 171.064 142.928 172.429 142.876C173.794 142.824 175.102 142.318 176.146 141.437C177.19 140.556 177.909 139.352 178.19 138.015C179.173 138.767 180.36 139.205 181.596 139.272C182.832 139.338 184.06 139.029 185.117 138.385C186.175 137.742 187.013 136.794 187.523 135.666C188.033 134.538 188.19 133.283 187.974 132.064C189.293 132.397 190.685 132.283 191.932 131.74C193.18 131.197 194.212 130.255 194.866 129.063C195.52 127.869 195.759 126.492 195.545 125.148C195.332 123.804 194.678 122.57 193.686 121.638C194.53 121.317 195.293 120.815 195.922 120.167C196.55 119.518 197.028 118.74 197.323 117.886C197.616 117.032 197.717 116.124 197.62 115.227C197.523 114.329 197.23 113.464 196.761 112.693Z" stroke="#120071" stroke-width="0.9375" stroke-linecap="round" stroke-linejoin="round"/>
<path d="M176.884 130.904C176.701 130.284 176.392 129.709 175.977 129.214C175.562 128.719 175.05 128.315 174.472 128.027C173.894 127.739 173.263 127.572 172.618 127.538C171.973 127.505 171.327 127.604 170.723 127.83C169.914 128.133 169.204 128.653 168.671 129.333C168.15 130.004 167.814 130.8 167.695 131.641" stroke="#120071" stroke-width="0.9375" stroke-linecap="round" stroke-linejoin="round"/>
<path d="M187.335 119.625C186.317 119.275 185.209 119.283 184.197 119.649C183.184 120.015 182.327 120.717 181.768 121.637C181.209 122.558 180.982 123.642 181.124 124.709C181.266 125.777 181.77 126.763 182.55 127.505" stroke="#120071" stroke-width="0.9375" stroke-linecap="round" stroke-linejoin="round"/>
<path d="M193.69 121.644C192.851 121.954 191.965 122.115 191.071 122.12" stroke="#120071" stroke-width="0.9375" stroke-linecap="round" stroke-linejoin="round"/>
<path d="M167.633 136.75C167.276 137.385 166.833 137.966 166.315 138.479" stroke="#120071" stroke-width="0.9375" stroke-linecap="round" stroke-linejoin="round"/>
<path d="M187.978 132.07C187.211 131.85 186.486 131.506 185.831 131.052" stroke="#120071" stroke-width="0.9375" stroke-linecap="round" stroke-linejoin="round"/>
<path d="M178.261 135.471C178.375 136.319 178.352 137.18 178.194 138.021" stroke="#120071" stroke-width="0.9375" stroke-linecap="round" stroke-linejoin="round"/>
<path d="M157.459 130.142L153.912 132.284" stroke="#120071" stroke-width="0.9375" stroke-linecap="round" stroke-linejoin="round"/>
<path d="M154.936 126.047L151.436 128.166" stroke="#120071" stroke-width="0.9375" stroke-linecap="round" stroke-linejoin="round"/>
<path d="M136.488 142.877L98.685 165.825" stroke="#120071" stroke-width="0.9375" stroke-linecap="round" stroke-linejoin="round"/>
<path d="M135.725 137.711L96.28 161.684" stroke="#120071" stroke-width="0.9375" stroke-linecap="round" stroke-linejoin="round"/>
<path d="M169.29 71.4863C177.756 70.7029 186.268 72.3824 193.803 76.3226C201.337 80.2628 207.572 86.296 211.759 93.6963C224.404 115.428 217.78 143.494 196.975 156.375C183.961 164.433 180.35 160.173 155.079 167.375" stroke="#120071" stroke-width="0.9375" stroke-linecap="round" stroke-linejoin="round"/>
<path d="M104.17 189.398C115.73 183.369 126.061 178.099 136.701 173.753" stroke="#120071" stroke-width="0.9375" stroke-linecap="round" stroke-linejoin="round"/>
<path d="M105.493 125.166C97.4713 131.594 88.6863 137.855 78.4263 145.425" stroke="#120071" stroke-width="0.9375" stroke-linecap="round" stroke-linejoin="round"/>
<path d="M139.962 87.7925C134.974 95.2925 129.376 102.371 123.227 108.955" stroke="#120071" stroke-width="0.9375" stroke-linecap="round" stroke-linejoin="round"/>
<path d="M160.935 59.4412C164.958 61.7025 169.053 66.345 169.79 71.0575C160.768 78.9612 141.939 88.5787 128.346 91.1962C129.465 95.1012 130.131 98.8387 128.418 102.529C128.833 100.45 119.226 97.8275 116.824 97.2912C114.479 96.7675 105.439 95.14 104.208 96.8625C105.231 94.6725 106.184 92.1012 107.231 89.435C114.825 89.2212 115.431 79.6375 118.514 76.9137C119.485 76.0562 121.014 76.3437 122.346 76.1287C139 73.42 153.199 64.7975 160.959 59.4175L160.935 59.4412Z" stroke="#120071" stroke-width="0.9375" stroke-linecap="round" stroke-linejoin="round"/>
<path d="M105.57 101.1C112.385 100.992 119.097 102.774 124.96 106.25" stroke="#120071" stroke-width="0.9375" stroke-linecap="round" stroke-linejoin="round"/>
<path d="M124.617 71.5737C123.841 72.9312 120.841 71.8012 117.776 70.1987C118.213 71.4697 118.857 72.6599 119.681 73.7212" stroke="#120071" stroke-width="0.9375" stroke-linecap="round" stroke-linejoin="round"/>
<path d="M121.464 76.2175C119.805 75.81 120.249 75.0025 119.681 73.7237C124.156 73.0625 124.931 72.2387 124.748 69.9962C124.479 66.7387 122.566 59.6412 120.585 57.4175" stroke="#120071" stroke-width="0.9375" stroke-linecap="round" stroke-linejoin="round"/>
<path d="M128.346 91.1963C126.965 91.4588 125.632 91.6488 124.394 91.7688" stroke="#120071" stroke-width="0.9375" stroke-linecap="round" stroke-linejoin="round"/>
<path d="M118.205 59.2751C119.466 62.7026 118.33 63.2026 117.3 62.1501C115.395 60.1988 113.277 62.7751 116.752 65.6013C116.3 69.1686 115.396 72.6641 114.062 76.0038C111.159 81.6701 102.589 89.8588 92.615 91.9063C84.2587 93.6201 77.7837 90.3351 85.24 81.7651C90.31 75.9326 98.0712 73.6001 98.785 73.3901C86.6687 76.2938 83.9812 69.9651 93.3337 63.2013C102.644 56.4676 116.376 52.9888 120.59 57.4163C120.992 58.2313 119.429 58.5188 118.205 59.2751Z" stroke="#120071" stroke-width="0.9375" stroke-linecap="round" stroke-linejoin="round"/>
<path d="M107.231 89.435C108.489 86.0333 110.109 82.777 112.064 79.7225C112.837 78.5661 113.498 77.3389 114.039 76.0575" stroke="#120071" stroke-width="0.9375" stroke-linecap="round" stroke-linejoin="round"/>
<path d="M123.264 108.917C124.914 106.487 126.401 103.948 127.715 101.32" stroke="#120071" stroke-width="0.9375" stroke-linecap="round" stroke-linejoin="round"/>
<path d="M174.98 58.2749C178.574 57.4174 181.532 59.0374 181.287 60.4174C181.232 60.6943 181.119 60.9562 180.955 61.1859C180.791 61.4156 180.58 61.6079 180.336 61.7499" stroke="#120071" stroke-width="0.9375" stroke-linecap="round" stroke-linejoin="round"/>
<path d="M174.646 56.085C178.431 55.18 182.192 57.085 180.574 59.085" stroke="#120071" stroke-width="0.9375" stroke-linecap="round" stroke-linejoin="round"/>
<path d="M169.385 69.3438C171.625 66.7871 174.499 64.866 177.718 63.7738" stroke="#120071" stroke-width="0.9375" stroke-linecap="round" stroke-linejoin="round"/>
<path d="M174.836 60.845C178.336 60.1313 180.641 61.5113 180.502 62.8688C180.331 64.535 177.002 67.0588 174.194 65.44" stroke="#120071" stroke-width="0.9375" stroke-linecap="round" stroke-linejoin="round"/>
<path d="M171.885 54.8225C171.933 54.775 173.385 52.7525 172.743 52.1088C172.195 51.5613 164.291 58.06 162.078 60.1313" stroke="#120071" stroke-width="0.9375" stroke-linecap="round" stroke-linejoin="round"/>
<path d="M176.431 55.8462C182.716 52.8237 184.404 49.1774 183.216 49.8462C179.253 51.8299 175.184 53.5942 171.028 55.1312C167.81 56.3552 164.788 58.0394 162.054 60.1312" stroke="#120071" stroke-width="0.9375" stroke-linecap="round" stroke-linejoin="round"/>
<path d="M152.555 178.846C151.994 184.488 151.93 190.167 152.365 195.82C152.971 201.294 153.269 206.126 152.46 206.651C149.53 208.552 145.691 195.234 141.224 190.701C140.139 189.656 139.266 188.412 138.654 187.036C137.627 184.58 138.871 182.577 138.771 178.612" stroke="#120071" stroke-width="0.9375" stroke-linecap="round" stroke-linejoin="round"/>
<path d="M97.5662 163.826C104.597 176.009 107.447 187.54 103.897 189.576C100.377 191.604 91.805 183.387 84.7825 171.201C77.76 159.015 74.9062 147.5 78.45 145.449C81.9937 143.397 90.5287 151.633 97.5662 163.826Z" stroke="#120071" stroke-width="0.9375" stroke-linecap="round" stroke-linejoin="round"/>
<path d="M61.435 209.04C59.655 197.961 48.955 179.529 40.2675 172.873C35.78 169.396 32.5663 170.011 32.9338 175.841C33.6313 186.904 45.95 208.246 55.145 214.509C60.25 217.984 62.445 215.329 61.435 209.04Z" stroke="#120071" stroke-width="0.9375" stroke-linecap="round" stroke-linejoin="round"/>
<path d="M60.3613 215.625L67.4288 211.536C68.1092 211.003 68.5717 210.239 68.7295 209.389C68.8874 208.539 68.7298 207.66 68.2863 206.917C71.0988 211.154 76.6175 206.78 74.4038 203.109C76.4575 206.609 82.915 204.349 80.26 199.039C80.8611 199.819 81.7188 200.362 82.6813 200.571C83.6439 200.78 84.6494 200.642 85.52 200.181C88.395 198.346 87.3288 194.777 85.545 188.969C82.2084 178.992 76.9156 169.781 69.9763 161.875C68.3086 159.888 66.3992 158.118 64.2925 156.605C60.9613 154.539 57.2138 156.087 58.5025 161.709C57.4425 159.942 56.1988 158.787 54.0975 159.351C53.5672 159.499 53.0782 159.768 52.6689 160.136C52.2595 160.504 51.9407 160.962 51.7375 161.474C51.5345 161.986 51.4528 162.538 51.499 163.086C51.5452 163.635 51.718 164.166 52.0038 164.636C52.0038 164.636 49.5375 161.519 46.7425 163.732C46.0489 164.274 45.5816 165.054 45.4318 165.92C45.2821 166.787 45.4606 167.679 45.9325 168.421C45.5941 167.823 45.0846 167.339 44.4694 167.033C43.8543 166.726 43.1615 166.61 42.48 166.7C42.0274 166.759 41.5911 166.907 41.1963 167.136L34.5438 170.964" stroke="#120071" stroke-width="0.9375" stroke-linecap="round" stroke-linejoin="round"/>
<path d="M233.111 177.848C230.175 179.469 227.359 181.299 224.685 183.323C216.828 189.391 209.164 197.01 210.185 198.344C211.206 199.678 220.495 194.205 228.371 188.131C231.011 186.056 233.494 183.788 235.799 181.346" stroke="#120071" stroke-width="0.9375" stroke-linecap="round" stroke-linejoin="round"/>
<path d="M233.111 177.847C234.825 171.92 240.539 173.729 243.681 170.157C244.253 175.61 241.253 181.085 235.825 181.346L233.111 177.847Z" stroke="#120071" stroke-width="0.9375" stroke-linecap="round" stroke-linejoin="round"/>
<path d="M225.672 182.576L229.35 187.345" stroke="#120071" stroke-width="0.9375" stroke-linecap="round" stroke-linejoin="round"/>
<path d="M238.706 63.8213L235.588 70.8075H241.3L238.158 77.795" stroke="#120071" stroke-width="0.9375" stroke-linecap="round" stroke-linejoin="round"/>
<path d="M127.703 236.384L115.039 236.764" stroke="#120071" stroke-width="0.9375" stroke-linecap="round" stroke-linejoin="round"/>
<path d="M121.561 242.906L121.18 230.241" stroke="#120071" stroke-width="0.9375" stroke-linecap="round" stroke-linejoin="round"/>
<path d="M107.588 96.1012C107.374 97.2062 107.037 98.2837 106.587 99.315C102.707 97.3862 103.613 96.1249 107.588 96.1012Z" stroke="#120071" stroke-width="0.9375" stroke-linecap="round" stroke-linejoin="round"/>
<path d="M128.417 102.529C128.302 102.96 127.691 103.241 126.657 103.381" stroke="#120071" stroke-width="0.9375" stroke-linecap="round" stroke-linejoin="round"/>
<path d="M107.588 96.1012C107.198 98.8056 105.825 101.271 103.731 103.027C94.3763 110.455 94.2313 120.857 101.065 128.642" stroke="#120071" stroke-width="0.9375" stroke-linecap="round" stroke-linejoin="round"/>
<path d="M34.1275 171.224L23.58 177.204" stroke="#120071" stroke-width="0.9375" stroke-linecap="round" stroke-linejoin="round"/>
<path d="M59.8775 215.886L50.4088 221.41" stroke="#120071" stroke-width="0.9375" stroke-linecap="round" stroke-linejoin="round"/>
<path d="M45.8375 224.29L38.815 228.385" stroke="#120071" stroke-width="0.9375" stroke-linecap="round" stroke-linejoin="round"/>
<path d="M18.6763 180.275L11.5113 184.346" stroke="#120071" stroke-width="0.9375" stroke-linecap="round" stroke-linejoin="round"/>
<path d="M40.91 197.057L17.8425 210.697" stroke="#120071" stroke-width="0.9375" stroke-linecap="round" stroke-linejoin="round"/>
<path d="M13.2487 213.579L6.25 217.649" stroke="#120071" stroke-width="0.9375" stroke-linecap="round" stroke-linejoin="round"/>
<path d="M50.9088 111.217C48.4911 113.541 45.4386 115.096 42.1373 115.685C38.836 116.274 35.4342 115.871 32.362 114.527C29.2899 113.182 26.6854 110.957 24.8779 108.132C23.0704 105.308 22.1411 102.011 22.2076 98.6578C22.274 95.305 23.3332 92.0473 25.2511 89.2965C27.1691 86.5457 29.8597 84.4254 32.9827 83.2038C36.1057 81.9821 39.5208 81.714 42.7962 82.4334C46.0715 83.1527 49.06 84.8271 51.3838 87.245C52.9281 88.8494 54.1409 90.7426 54.9529 92.8162C55.7649 94.8898 56.1602 97.1032 56.1161 99.3297C56.072 101.556 55.5893 103.752 54.6958 105.792C53.8023 107.832 52.5154 109.675 50.9088 111.217Z" stroke="#120071" stroke-width="0.9375" stroke-linecap="round" stroke-linejoin="round"/>
<path d="M56.0975 100C61.3587 102.5 64.4725 104.875 64.025 106.375C63.2238 109.084 51.3837 108.041 37.5537 104.041C23.7237 100.041 13.15 94.6 13.9387 91.8875C14.3887 90.3387 18.39 90.0062 24.3137 90.745" stroke="#120071" stroke-width="0.9375" stroke-linecap="round" stroke-linejoin="round"/>
<path d="M102 117.691C102.69 122.024 105.125 125.996 108.404 127.024C118.643 130.226 136.374 137.998 136.374 137.998C136.595 150.258 137.705 163.748 136.517 177.848C142.195 180.237 148.568 180.382 154.347 178.251C155.347 164.945 155.989 152.185 155.751 140.401C155.697 137.469 155.018 134.582 153.757 131.934C152.497 129.286 150.685 126.938 148.444 125.048C139.192 117.399 128.877 111.137 117.824 106.456" stroke="#120071" stroke-width="0.9375" stroke-linecap="round" stroke-linejoin="round"/>
<path d="M136.367 137.998L139.105 139.021L136.606 146.186" stroke="#120071" stroke-width="0.9375" stroke-linecap="round" stroke-linejoin="round"/>
<path d="M137.011 168.444C142.798 170.43 149.03 170.735 154.984 169.325" stroke="#120071" stroke-width="0.9375" stroke-linecap="round" stroke-linejoin="round"/>
<path d="M131.774 7.09375V11.07" stroke="#120071" stroke-width="0.9375" stroke-linecap="round" stroke-linejoin="round"/>
<path d="M139.51 14.83H135.534" stroke="#120071" stroke-width="0.9375" stroke-linecap="round" stroke-linejoin="round"/>
<path d="M131.774 22.5676V18.5913" stroke="#120071" stroke-width="0.9375" stroke-linecap="round" stroke-linejoin="round"/>
<path d="M124.037 14.83H128.015" stroke="#120071" stroke-width="0.9375" stroke-linecap="round" stroke-linejoin="round"/>
<path d="M135.534 14.8299C135.04 14.8314 134.55 14.7352 134.093 14.5468C133.636 14.3583 133.221 14.0814 132.872 13.732C132.522 13.3825 132.245 12.9674 132.057 12.5106C131.869 12.0537 131.772 11.5641 131.774 11.0699C131.776 11.814 131.557 12.5419 131.144 13.1608C130.731 13.7797 130.143 14.2616 129.455 14.5449C128.998 14.7339 128.509 14.8307 128.015 14.8299C128.509 14.8288 128.999 14.9253 129.455 15.114C129.912 15.3026 130.327 15.5796 130.676 15.9292C131.026 16.2787 131.302 16.6938 131.491 17.1507C131.679 17.6075 131.775 18.0971 131.774 18.5912C131.772 18.097 131.869 17.6073 132.057 17.1504C132.245 16.6934 132.522 16.2783 132.872 15.9287C133.221 15.5792 133.636 15.3022 134.093 15.1136C134.55 14.925 135.04 14.8286 135.534 14.8299Z" stroke="#120071" stroke-width="0.9375" stroke-linecap="round" stroke-linejoin="round"/>
</svg>
