<svg xmlns="http://www.w3.org/2000/svg" width="24" height="24" fill="none" viewBox="0 0 24 24"><g clip-path="url(#clip0_736_159)"><path stroke="#1D3261" stroke-linejoin="round" stroke-width="1.714" d="M8.08368 4.2349C6.86631 3.21466 5.05249 3.36131 4.12882 4.65349C3.88212 4.99863 3.58976 5.4103 3.0848 6.04195C1.34774 8.21484 1.34774 11.3611 3.0944 13.5263C4.38382 15.1247 5.73576 16.7375 7.24705 18.2488C8.75835 19.7602 10.3712 21.112 11.9696 22.4015C14.1348 24.1482 17.2811 24.1482 19.454 22.4111C20.1279 21.8723 20.5482 21.5787 20.9051 21.3239C22.1535 20.4325 22.3283 18.684 21.3536 17.4997C20.5835 16.5638 19.7259 15.6709 18.8985 14.7994C18.2394 14.1051 17.1388 14.0598 16.3908 14.6571C16.1896 14.8178 15.9398 15.0296 15.4334 15.5044C12.9479 14.0275 11.4415 12.5027 9.99151 10.0625C10.4721 9.5499 10.684 9.2994 10.8461 9.09625C11.4424 8.34884 11.3982 7.25105 10.6998 6.59797C9.84862 5.80203 8.98237 4.98805 8.08368 4.2349Z"/></g><defs><clipPath id="clip0_736_159"><rect width="24" height="24" fill="#fff"/></clipPath></defs></svg>