<svg width="729" height="504" viewBox="0 0 729 504" fill="none" xmlns="http://www.w3.org/2000/svg">
<g clip-path="url(#clip0_695_477)">
<path d="M11.9565 324.007C11.9565 324.404 12.275 324.722 12.6715 324.722H450.855C451.251 324.722 451.57 324.404 451.57 324.007C451.57 323.61 451.251 323.292 450.855 323.292H12.6715C12.275 323.292 11.9565 323.61 11.9565 324.007Z" fill="#3F3D58"/>
<path d="M152.27 57.7887H11.7342C6.37476 57.7887 2.0127 53.4267 2.0127 48.0672C2.0127 42.7078 6.37476 38.3457 11.7342 38.3457H152.27C157.629 38.3457 161.991 42.7078 161.991 48.0672C161.991 53.4267 157.629 57.7887 152.27 57.7887ZM11.7342 39.5474C7.03568 39.5474 3.21437 43.3687 3.21437 48.0672C3.21437 52.7658 7.03568 56.5871 11.7342 56.5871H152.27C156.968 56.5871 160.789 52.7658 160.789 48.0672C160.789 43.3687 156.968 39.5474 152.27 39.5474H11.7342Z" fill="#E2E3E4"/>
<path d="M152.27 171.557H11.7341C6.53686 171.557 2.31299 167.333 2.31299 162.136C2.31299 156.939 6.53686 152.715 11.7341 152.715H152.27C157.467 152.715 161.691 156.939 161.691 162.136C161.691 167.333 157.467 171.557 152.27 171.557Z" fill="#6C63FF"/>
<path d="M106.216 19.4613H9.4211C4.22387 19.4613 0 15.2375 0 10.0402C0 4.84302 4.22387 0.619141 9.4211 0.619141H106.216C111.413 0.619141 115.637 4.84302 115.637 10.0402C115.637 15.2375 111.413 19.4613 106.216 19.4613Z" fill="#E2E3E4"/>
<path d="M152.27 95.8095H11.7342C6.37476 95.8095 2.0127 91.4474 2.0127 86.088C2.0127 80.7285 6.37476 76.3665 11.7342 76.3665H152.27C157.629 76.3665 161.991 80.7285 161.991 86.088C161.991 91.4474 157.629 95.8095 152.27 95.8095ZM11.7342 77.5681C7.03568 77.5681 3.21437 81.3894 3.21437 86.088C3.21437 90.7865 7.03568 94.6078 11.7342 94.6078H152.27C156.968 94.6078 160.789 90.7865 160.789 86.088C160.789 81.3894 156.968 77.5681 152.27 77.5681H11.7342Z" fill="#E2E3E4"/>
<path d="M152.27 133.837H11.7342C6.37476 133.837 2.0127 129.475 2.0127 124.115C2.0127 118.756 6.37476 114.394 11.7342 114.394H152.27C157.629 114.394 161.991 118.756 161.991 124.115C161.991 129.475 157.629 133.837 152.27 133.837ZM11.7342 115.595C7.03568 115.595 3.21437 119.417 3.21437 124.115C3.21437 128.814 7.03568 132.635 11.7342 132.635H152.27C156.968 132.635 160.789 128.814 160.789 124.115C160.789 119.417 156.968 115.595 152.27 115.595H11.7342Z" fill="#E2E3E4"/>
<path d="M6.90325 31.364H43.7345C44.6117 31.364 45.3267 32.073 45.3267 32.9562C45.3267 33.8334 44.6117 34.5484 43.7345 34.5484H6.90325C6.02603 34.5484 5.31104 33.8395 5.31104 32.9562C5.31104 32.079 6.02603 31.364 6.90325 31.364Z" fill="#E2E3E4"/>
<path d="M6.90325 70.2861H43.7345C44.6117 70.2861 45.3267 70.9951 45.3267 71.8723C45.3267 72.7496 44.6117 73.4646 43.7345 73.4646H6.90325C6.02603 73.4646 5.31104 72.7556 5.31104 71.8783C5.31104 71.0011 6.02603 70.2861 6.90325 70.2861Z" fill="#E2E3E4"/>
<path d="M6.90325 109.214H43.7345C44.6117 109.214 45.3267 109.923 45.3267 110.807C45.3267 111.684 44.6117 112.393 43.7345 112.393H6.90325C6.02603 112.393 5.31104 111.684 5.31104 110.801C5.31104 109.923 6.02603 109.214 6.90325 109.214Z" fill="#E2E3E4"/>
<path d="M268.622 80.0857L255.187 84.5079V65.167H267.378L268.622 80.0857Z" fill="#F3A3A6"/>
<path d="M256.851 70.5205C264.244 70.5205 270.238 64.5272 270.238 57.1339C270.238 49.7407 264.244 43.7473 256.851 43.7473C249.458 43.7473 243.464 49.7407 243.464 57.1339C243.464 64.5272 249.458 70.5205 256.851 70.5205Z" fill="#F3A3A6"/>
<path d="M260.528 55.8061C258.287 55.74 256.815 53.4749 255.944 51.408C255.073 49.3411 254.178 46.9678 252.099 46.1146C250.398 45.4177 247.4 50.1342 246.06 48.8785C244.66 47.5686 246.024 40.8453 247.508 39.6376C248.992 38.4299 251.023 38.1956 252.934 38.1055C257.596 37.8892 262.289 38.2677 266.861 39.223C269.691 39.8119 272.599 40.7011 274.642 42.7439C277.226 45.3395 277.887 49.251 278.073 52.9101C278.265 56.6533 278.049 60.5707 276.228 63.8453C274.408 67.1198 270.598 69.5352 266.945 68.7C266.579 66.7173 266.951 64.6804 267.096 62.6616C267.234 60.6488 267.09 58.4738 265.858 56.8696C264.632 55.2654 262.001 54.6285 260.571 56.0524" fill="#2F2E43"/>
<path d="M276.997 60.4445C278.337 59.4652 279.942 58.642 281.588 58.8463C283.366 59.0626 284.874 60.5287 285.331 62.2651C285.788 64.0015 285.277 65.9121 284.171 67.3301C283.072 68.7481 281.432 69.6854 279.701 70.154C278.698 70.4244 277.598 70.5386 276.643 70.13C275.237 69.5232 274.474 67.7267 275.027 66.2967" fill="#2F2E43"/>
<path d="M225.77 186.398C224.875 190.796 226.515 194.816 229.423 195.374C232.331 195.933 235.413 192.815 236.303 188.417C236.681 186.662 236.621 184.848 236.128 183.117L247.202 114.171L233.352 111.564L228.005 181.561C226.869 182.979 226.106 184.637 225.77 186.404V186.398Z" fill="#F3A3A6"/>
<path d="M255.043 75.6335H245.592C238.911 76.649 237.096 80.2119 235.576 86.7971C233.257 96.843 230.295 110.218 230.883 110.416C231.827 110.728 247.917 118.299 256.119 116.568L255.043 75.6335Z" fill="#6C63FF"/>
<path d="M264.181 295.245H251.6V313.096H264.181V295.245Z" fill="#F3A3A6"/>
<path d="M239.349 323.899C238.027 323.899 236.85 323.869 235.96 323.785C232.62 323.478 229.429 321.009 227.825 319.567C227.104 318.918 226.876 317.885 227.248 316.995C227.519 316.358 228.053 315.878 228.72 315.691L237.553 313.168L251.853 303.519L252.015 303.807C252.075 303.915 253.481 306.445 253.949 308.151C254.13 308.8 254.082 309.341 253.811 309.761C253.625 310.05 253.361 310.218 253.15 310.314C253.409 310.584 254.22 311.137 256.719 311.534C260.366 312.11 261.135 308.331 261.166 308.175L261.19 308.049L261.298 307.977C263.034 306.859 264.104 306.348 264.47 306.457C264.698 306.523 265.083 306.643 266.122 316.935C266.225 317.26 266.952 319.627 266.459 321.892C265.924 324.356 255.157 323.508 253 323.316C252.94 323.322 244.877 323.899 239.355 323.899H239.349Z" fill="#2F2E43"/>
<path d="M300.007 281.22L289.332 287.878L298.778 303.025L309.453 296.367L300.007 281.22Z" fill="#F3A3A6"/>
<path d="M285.83 321.454C284.352 321.454 282.994 321.273 282.026 321.105C281.077 320.937 280.332 320.18 280.176 319.231C280.068 318.546 280.266 317.855 280.735 317.344L286.893 310.531L293.923 294.777L294.211 294.933C294.319 294.993 296.849 296.393 298.153 297.595C298.652 298.051 298.898 298.538 298.886 299.037C298.88 299.385 298.748 299.661 298.615 299.86C298.976 299.956 299.955 299.992 302.287 299.006C305.687 297.57 304.341 293.953 304.281 293.803L304.233 293.683L304.287 293.569C305.171 291.7 305.801 290.703 306.174 290.601C306.408 290.535 306.793 290.433 313.12 298.622C313.378 298.838 315.247 300.467 316.028 302.648C316.875 305.021 307.292 310.002 305.363 310.975C305.303 311.023 295.275 318.311 291.153 320.384C289.519 321.207 287.584 321.46 285.824 321.46L285.83 321.454Z" fill="#2F2E43"/>
<path d="M273.446 145.967H238.219L235.023 178.737L249.01 299.817H266.993L259.801 229.886L288.972 293.022L304.954 281.834L282.177 222.892C282.177 222.892 290.312 171.545 283.919 158.753C277.526 145.967 273.446 145.967 273.446 145.967Z" fill="#2F2E43"/>
<path d="M290.973 147.962H235.023L251.81 75.6335H276.186L290.973 147.962Z" fill="#6C63FF"/>
<path d="M296.008 186.398C296.903 190.796 295.263 194.816 292.355 195.374C289.447 195.933 286.365 192.815 285.475 188.417C285.097 186.662 285.157 184.848 285.65 183.117L274.576 114.171L288.425 111.564L293.773 181.561C294.908 182.979 295.672 184.637 296.008 186.404V186.398Z" fill="#F3A3A6"/>
<path d="M266.735 75.6335H276.186C282.867 76.649 284.682 80.2119 286.202 86.7971C288.521 96.843 291.483 110.218 290.894 110.416C289.951 110.728 273.861 118.299 265.659 116.568L266.735 75.6335Z" fill="#6C63FF"/>
</g>
<g clip-path="url(#clip1_695_477)">
<path d="M688.806 502.397H536.424C514.259 502.397 496.229 484.367 496.229 462.202V64.2754C496.229 42.1109 514.259 24.0811 536.424 24.0811H688.806C710.97 24.0811 729 42.1109 729 64.2754V462.202C729 484.367 710.97 502.397 688.806 502.397Z" fill="#DADBDC"/>
<path d="M688.916 491.516H536.313C519.909 491.516 506.558 478.165 506.558 461.761V63.9361C506.558 47.5317 519.909 34.1809 536.313 34.1809H688.916C705.32 34.1809 718.671 47.5317 718.671 63.9361V461.761C718.671 478.165 705.32 491.516 688.916 491.516Z" fill="white"/>
<path d="M634.195 60.6615H591.042C585.345 60.6615 580.713 56.0298 580.713 50.3328C580.713 44.6359 585.345 40.0042 591.042 40.0042H634.195C639.892 40.0042 644.524 44.6359 644.524 50.3328C644.524 56.0298 639.892 60.6615 634.195 60.6615Z" fill="#DADBDC"/>
<path d="M678.232 182.144H551.96C549.459 182.144 547.423 179.556 547.423 176.384C547.423 173.212 549.459 170.624 551.96 170.624H678.232C680.734 170.624 682.77 173.212 682.77 176.384C682.77 179.556 680.734 182.144 678.232 182.144Z" fill="#DADBDC"/>
<path d="M678.232 207.67H551.96C549.459 207.67 547.423 205.082 547.423 201.91C547.423 198.738 549.459 196.15 551.96 196.15H678.232C680.734 196.15 682.77 198.738 682.77 201.91C682.77 205.082 680.734 207.67 678.232 207.67Z" fill="#DADBDC"/>
<path d="M642.023 233.196H551.96C549.459 233.196 547.423 230.608 547.423 227.436C547.423 224.264 549.459 221.676 551.96 221.676H642.023C644.524 221.676 646.56 224.264 646.56 227.436C646.56 230.608 644.524 233.196 642.023 233.196Z" fill="#DADBDC"/>
<path d="M612.615 383.273C642.383 383.273 666.515 359.142 666.515 329.373C666.515 299.605 642.383 275.473 612.615 275.473C582.846 275.473 558.714 299.605 558.714 329.373C558.714 359.142 582.846 383.273 612.615 383.273Z" fill="#6C63FF"/>
<path d="M598.277 330.494C601.063 335.946 603.848 341.406 606.633 346.859C607.43 348.429 609.774 347.932 610.239 346.385C613.893 334.202 620.679 323.1 629.824 314.271C631.654 312.503 628.861 309.718 627.031 311.478C617.404 320.773 610.279 332.522 606.428 345.336L610.034 344.862C607.249 339.41 604.464 333.95 601.678 328.497C600.526 326.233 597.118 328.229 598.27 330.486H598.277V330.494Z" fill="white"/>
<path d="M467.311 264.174L454.244 268.632L454.039 249.766L465.93 249.632L467.311 264.174Z" fill="#F3A3A6"/>
<path d="M455.57 254.974C462.786 254.974 468.636 249.123 468.636 241.907C468.636 234.69 462.786 228.84 455.57 228.84C448.353 228.84 442.503 234.69 442.503 241.907C442.503 249.123 448.353 254.974 455.57 254.974Z" fill="#F3A3A6"/>
<path d="M459.144 240.573C456.959 240.534 455.499 238.34 454.623 236.328C453.747 234.324 452.848 232.012 450.82 231.199C449.155 230.537 446.283 235.168 444.957 233.961C443.576 232.699 444.839 226.118 446.275 224.926C447.711 223.735 449.692 223.483 451.554 223.372C456.106 223.112 460.683 223.427 465.157 224.311C467.919 224.855 470.775 225.692 472.787 227.665C475.336 230.166 476.022 233.977 476.243 237.543C476.472 241.189 476.298 245.016 474.562 248.235C472.819 251.447 469.134 253.845 465.559 253.072C465.181 251.139 465.52 249.15 465.638 247.178C465.757 245.213 465.583 243.09 464.368 241.536C463.153 239.982 460.58 239.39 459.2 240.794" fill="#2F2E43"/>
<path d="M475.265 244.921C476.559 243.95 478.113 243.13 479.723 243.311C481.466 243.501 482.95 244.921 483.415 246.609C483.881 248.298 483.4 250.168 482.342 251.565C481.285 252.961 479.699 253.892 478.01 254.366C477.032 254.642 475.967 254.76 475.028 254.366C473.647 253.79 472.889 252.046 473.41 250.642" fill="#2F2E43"/>
<path d="M426.643 368.368C425.823 372.669 427.456 376.574 430.304 377.087C433.145 377.6 436.12 374.523 436.94 370.223C437.295 368.51 437.216 366.735 436.711 365.054L446.764 297.661L433.224 295.271L428.766 363.626C427.677 365.023 426.943 366.648 426.643 368.376V368.368Z" fill="#F3A3A6"/>
<path d="M454.007 259.976L444.783 260.079C438.274 261.136 436.538 264.639 435.133 271.078C432.979 280.902 430.233 293.992 430.809 294.174C431.732 294.473 447.513 301.685 455.499 299.902L454.007 259.976Z" fill="#6C63FF"/>
<path d="M465.335 474.165L453.058 474.302L453.252 491.716L465.529 491.578L465.335 474.165Z" fill="#F3A3A6"/>
<path d="M441.383 502.397C440.089 502.412 438.945 502.397 438.077 502.326C434.81 502.065 431.677 499.69 430.091 498.301C429.381 497.678 429.144 496.668 429.5 495.8C429.752 495.177 430.273 494.703 430.92 494.506L439.513 491.95L453.361 482.378L453.518 482.655C453.581 482.757 454.978 485.211 455.451 486.876C455.633 487.507 455.594 488.036 455.333 488.446C455.152 488.73 454.899 488.896 454.694 488.999C454.946 489.259 455.743 489.788 458.19 490.151C461.748 490.679 462.466 486.979 462.49 486.821L462.514 486.695L462.616 486.624C464.297 485.511 465.33 485.006 465.693 485.109C465.922 485.172 466.293 485.282 467.414 495.319C467.516 495.634 468.25 497.939 467.792 500.156C467.295 502.57 456.777 501.852 454.678 501.687C454.615 501.694 446.756 502.341 441.367 502.397H441.383Z" fill="#2F2E43"/>
<path d="M500.133 460.07L489.788 466.683L499.168 481.355L509.512 474.742L500.133 460.07Z" fill="#F3A3A6"/>
<path d="M486.714 499.501C485.27 499.517 483.944 499.359 482.997 499.201C482.066 499.043 481.332 498.318 481.174 497.386C481.056 496.716 481.253 496.045 481.695 495.54L487.629 488.825L494.312 473.376L494.596 473.525C494.699 473.581 497.184 474.922 498.47 476.082C498.96 476.524 499.204 476.989 499.204 477.479C499.204 477.818 499.078 478.094 498.952 478.283C499.307 478.37 500.262 478.394 502.526 477.408C505.824 475.972 504.475 472.452 504.412 472.31L504.365 472.192L504.42 472.082C505.256 470.251 505.872 469.272 506.227 469.162C506.456 469.099 506.826 468.988 513.092 476.911C513.344 477.124 515.19 478.686 515.972 480.808C516.824 483.12 507.529 488.076 505.651 489.046C505.596 489.093 495.882 496.313 491.89 498.381C490.304 499.201 488.418 499.47 486.698 499.485L486.714 499.501Z" fill="#2F2E43"/>
<path d="M472.731 328.403L438.36 328.781L435.599 360.785L450.559 478.78L468.108 478.583L460.335 410.425L489.483 471.718L504.956 460.624L482.09 403.355C482.09 403.355 489.475 353.163 483.1 340.751C476.724 328.34 472.739 328.387 472.739 328.387V328.403H472.731Z" fill="#2F2E43"/>
<path d="M489.846 330.162L435.259 330.77L450.851 260.016L474.641 259.747L489.846 330.162Z" fill="#6C63FF"/>
<path d="M495.18 367.611C496.096 371.895 494.549 375.833 491.716 376.409C488.884 376.985 485.846 373.978 484.931 369.694C484.536 367.989 484.575 366.214 485.041 364.518L473.489 297.361L486.974 294.671L492.947 362.916C494.068 364.289 494.833 365.898 495.18 367.619V367.611Z" fill="#F3A3A6"/>
<path d="M465.417 259.85L474.641 259.747C481.174 260.663 482.981 264.127 484.536 270.534C486.903 280.31 489.941 293.329 489.373 293.527C488.45 293.842 472.842 301.401 464.817 299.8L465.425 259.85H465.417Z" fill="#6C63FF"/>
<path d="M548.709 502.397C548.709 502.823 548.362 503.17 547.936 503.17H379.773C379.347 503.17 379 502.823 379 502.397C379 501.971 379.347 501.624 379.773 501.624H547.936C548.362 501.624 548.709 501.971 548.709 502.397Z" fill="#3F3D58"/>
</g>
<defs>
<clipPath id="clip0_695_477">
<rect width="451.57" height="324.103" fill="white" transform="translate(0 0.619141)"/>
</clipPath>
<clipPath id="clip1_695_477">
<rect width="350" height="479.089" fill="white" transform="translate(379 24.0811)"/>
</clipPath>
</defs>
</svg>
