<svg xmlns="http://www.w3.org/2000/svg" width="250" height="250" fill="none" viewBox="0 0 250 250"><path fill="#fff" fill-rule="evenodd" d="M151.339 20.7678C174.589 14.7857 202.643 23.0357 219.732 41.2321H238.893C240.403 41.2335 241.888 41.6179 243.209 42.3493C244.53 43.0807 245.644 44.1353 246.447 45.4144C247.25 46.6934 247.715 48.1552 247.799 49.663C247.884 51.1707 247.584 52.6752 246.929 54.0357L228.089 93.0714C233.446 138.571 215.643 182.071 179.839 207.786C143.232 234.089 89.3571 240.714 25.4642 214.536C21.9979 213.222 19.0262 210.863 16.9614 207.784C14.8966 204.705 13.841 201.061 13.9411 197.355C14.0412 193.649 15.292 190.067 17.52 187.104C19.748 184.142 22.8427 181.946 26.375 180.821C36.1777 178.166 45.5734 174.189 54.3035 169C34.748 157.251 19.4375 139.585 10.5869 118.558C1.7363 97.5306 -0.195351 74.2332 5.07138 52.0357C5.47189 48.7211 6.79359 45.5852 8.88647 42.9839C10.9794 40.3827 13.7596 38.4202 16.9115 37.3193C20.0635 36.2185 23.461 36.0233 26.7183 36.756C29.9756 37.4886 32.9622 39.1198 35.3392 41.4643C60.5714 66.2679 82.6249 76.5178 97.9107 80.7143C103.839 82.3393 108.804 83.0714 112.589 83.375C111.411 67.6607 114.089 54.5536 120.018 44.1964C127.232 31.5714 138.714 24.0178 151.339 20.7678Z" clip-rule="evenodd"/></svg>