<svg xmlns="http://www.w3.org/2000/svg" width="240" height="228" fill="none" viewBox="0 0 240 228"><path fill="#FECFC4" d="M187.714 141.98L145.013 148.345C142.953 139.12 141.858 134.523 141.138 131.22C138.125 117.5 126.204 112.792 122.903 111.75C122.488 114.238 107.998 122.854 101.421 118.915C77.3476 150.346 62.5001 170.888 30.6851 201C25.7926 205.536 40.0426 221.115 44.9588 216.65C75.5763 189.215 91.8538 174.2 114.946 146.093L110.483 131.273L129.625 164.161C130.985 166.494 133.029 168.353 135.479 169.488C137.93 170.621 140.669 170.975 143.328 170.502L191.301 161.857C195.601 161.156 192.118 141.185 187.714 141.98Z"/><path fill="#FECFC4" d="M80.6539 38.125L73.4814 4.80627L62.4376 7.18127C61.8649 7.31466 61.3418 7.60795 60.9292 8.02702C60.5166 8.4461 60.2315 8.97372 60.1071 9.54849C59.9827 10.1233 60.0241 10.7215 60.2264 11.2737C60.4288 11.8259 60.7838 12.3092 61.2501 12.6675C62.3134 13.4868 63.1203 14.5928 63.576 15.8554C64.0316 17.118 64.117 18.4845 63.822 19.7939C63.527 21.1034 62.8639 22.3013 61.9108 23.2465C60.9578 24.1917 59.7544 24.8448 58.4426 25.129C57.1307 25.4131 55.765 25.3165 54.5062 24.8504C53.2475 24.3843 52.1481 23.5682 51.3377 22.4982C50.5273 21.4282 50.0395 20.1488 49.9319 18.8109C49.8242 17.4729 50.1012 16.1321 50.7301 14.9463C51.0049 14.4281 51.1269 13.8425 51.0819 13.2576C51.0369 12.6728 50.8268 12.1128 50.476 11.6427C50.1252 11.1726 49.6481 10.8117 49.1003 10.6021C48.5524 10.3926 47.9563 10.3428 47.3814 10.4588L37.0739 12.6675L44.2501 45.9863C44.4202 46.7736 44.8961 47.4611 45.5731 47.8976C46.2501 48.3341 47.0727 48.4838 47.8601 48.3138L64.7926 44.68C64.9514 42.9625 65.2601 39.45 66.0751 38.3625C67.0014 37.1288 67.6664 41.2375 68.1176 43.9438L78.3301 41.735C79.1167 41.564 79.8033 41.0878 80.239 40.4109C80.6747 39.734 80.8239 38.9118 80.6539 38.125Z"/><path fill="#6153BD" d="M110.649 71.5164L108.375 74.1051C108.289 73.5102 108.132 72.928 107.905 72.3714C108.844 72.1722 109.763 71.886 110.649 71.5164Z"/><path fill="#6153BD" d="M127.178 94.1025C126.462 96.033 125.875 98.0086 125.42 100.016C128.365 100.134 128.555 100.205 131.358 100.205L127.178 94.1025Z"/><path fill="#6153BD" d="M117.375 143.073C116.568 144.094 115.736 145.091 114.953 146.089L110.489 131.269L117.375 143.073Z"/><path fill="#6153BD" d="M119.672 57.0063C112.125 48.3613 107.514 52.3513 105 57.2913C107.66 52.2563 111.863 53.7763 112.812 59.3338C112.907 59.975 113.264 59.9275 113.335 59.88C113.715 59.7792 114.071 59.6014 114.38 59.3575C116.589 57.8138 118.109 61.685 114.808 62.8013C114.378 65.2012 114.132 67.6303 114.071 70.0675C114.071 70.0675 127.771 66.25 119.672 57.0063Z"/><path fill="#6153BD" d="M128.413 54.8926C125.61 57.8139 121.223 58.1639 118.604 55.6526C115.985 53.1414 116.134 48.7414 118.936 45.8201C121.739 42.8989 126.126 42.5489 128.745 45.0601C131.364 47.5714 131.215 51.9714 128.413 54.8926Z"/><path fill="#6153BD" d="M30 205.533C15.5675 216.875 6.75003 221.573 6.98378 223.463C7.48378 227.524 22.3975 220.874 29.8775 221.491C31.6488 221.678 33.44 221.516 35.15 221.016C37.0738 220.423 38.525 218.808 40.375 216.931C35.6253 214.547 31.9287 210.485 30 205.533Z"/><path fill="#6153BD" d="M202.75 145.186C197.489 141.539 195.25 142.811 190.425 144.07C192.684 148.739 193.612 153.94 193.109 159.103C199.211 158.249 206.431 157.369 210.896 157.103C217.38 156.728 223.055 156.154 223.508 155.084C225.125 151.338 208.875 149.508 202.75 145.186Z"/><path fill="#6153BD" d="M181.324 78.2113L176.29 78.7113C177.43 75.4351 179.59 75.1951 181.324 78.2113Z"/><path fill="#6153BD" d="M182.275 92.6538C181.159 95.1238 179.378 95.2188 177.858 93.0101L182.275 92.6538Z"/><path fill="#6153BD" d="M149.691 31.8326C149.585 31.8552 149.476 31.8565 149.369 31.8364C149.262 31.8163 149.161 31.7753 149.07 31.7156C148.98 31.6559 148.902 31.5789 148.841 31.4889C148.781 31.3989 148.739 31.2977 148.718 31.1913L146.699 21.3163C146.655 21.1054 146.697 20.8859 146.815 20.7056C146.933 20.5253 147.117 20.3989 147.328 20.3538C147.539 20.3105 147.758 20.3524 147.939 20.4705C148.119 20.5885 148.245 20.773 148.29 20.9838L150.309 30.8588C150.336 30.9637 150.342 31.073 150.325 31.18C150.308 31.2871 150.27 31.3896 150.213 31.4813C150.155 31.573 150.079 31.6517 149.989 31.7122C149.899 31.7727 149.798 31.8137 149.691 31.8326Z"/><path fill="#6153BD" d="M95.3063 90.635L91.5563 99.7775C92.4113 99.8488 93.29 99.8963 94.145 99.9438C93.67 96.7938 94.07 93.5725 95.3063 90.635Z"/><path fill="#6153BD" d="M3.16006 125.023C2.9526 125.221 2.67654 125.331 2.38956 125.331C2.10257 125.33 1.82687 125.219 1.62006 125.02C1.41354 124.82 1.29277 124.548 1.28321 124.26C1.27365 123.973 1.37605 123.693 1.56881 123.48C1.77627 123.282 2.05233 123.171 2.33931 123.172C2.62629 123.172 2.90199 123.284 3.10881 123.483C3.31532 123.683 3.4361 123.955 3.44566 124.242C3.45522 124.53 3.35282 124.809 3.16006 125.023Z"/><path fill="#6153BD" d="M110.578 86.8588C110.596 87.0285 110.58 87.2001 110.531 87.3637C110.483 87.5272 110.402 87.6795 110.294 87.8116C110.186 87.9436 110.053 88.0529 109.902 88.133C109.751 88.2131 109.586 88.2625 109.416 88.2783C109.246 88.294 109.075 88.2758 108.912 88.2247C108.749 88.1736 108.598 88.0907 108.468 87.9807C108.337 87.8707 108.23 87.7359 108.152 87.5841C108.074 87.4323 108.027 87.2665 108.014 87.0963C107.987 86.7591 108.095 86.4251 108.313 86.1665C108.531 85.9079 108.842 85.7454 109.179 85.7142C109.515 85.683 109.851 85.7856 110.113 85.9998C110.374 86.214 110.541 86.5225 110.578 86.8588Z"/><path fill="#6153BD" d="M108.488 95.5276C108.503 95.696 108.485 95.8658 108.435 96.0274C108.385 96.1889 108.304 96.339 108.195 96.4691C108.087 96.5991 107.955 96.7066 107.805 96.7854C107.655 96.8642 107.492 96.9127 107.323 96.9282C107.155 96.9437 106.985 96.9259 106.823 96.8758C106.662 96.8257 106.512 96.7442 106.382 96.6361C106.252 96.528 106.144 96.3953 106.065 96.2456C105.987 96.096 105.938 95.9323 105.923 95.7639C105.891 95.4237 105.996 95.0851 106.215 94.8224C106.433 94.5597 106.747 94.3945 107.087 94.3632C107.427 94.3319 107.766 94.437 108.028 94.6553C108.291 94.8737 108.456 95.1875 108.488 95.5276Z"/><path fill="#6153BD" d="M108.488 105.216C108.503 105.385 108.485 105.555 108.435 105.716C108.385 105.878 108.304 106.028 108.195 106.158C108.087 106.288 107.955 106.395 107.805 106.474C107.655 106.553 107.492 106.601 107.323 106.617C107.155 106.632 106.985 106.615 106.823 106.565C106.662 106.514 106.512 106.433 106.382 106.325C106.252 106.217 106.144 106.084 106.065 105.934C105.987 105.785 105.938 105.621 105.923 105.453C105.891 105.112 105.996 104.774 106.215 104.511C106.433 104.248 106.747 104.083 107.087 104.052C107.427 104.021 107.766 104.126 108.028 104.344C108.291 104.562 108.456 104.876 108.488 105.216Z"/><path stroke="#120071" stroke-linecap="round" stroke-linejoin="round" stroke-width=".938" d="M47.125 214.723L78.75 227.025L87.465 204.583C87.9723 203.347 88.8191 202.28 89.9075 201.505C90.996 200.73 92.2814 200.28 93.6153 200.205C94.9491 200.131 96.2768 200.435 97.4448 201.084C98.6127 201.732 99.5732 202.698 100.215 203.87C101.679 206.558 103.881 208.773 106.561 210.252C109.241 211.732 112.288 212.415 115.344 212.221C118.399 212.026 121.334 210.963 123.806 209.157C126.277 207.351 128.182 204.876 129.295 202.025C130.408 199.173 130.683 196.062 130.088 193.059C129.492 190.056 128.051 187.285 125.934 185.073C123.817 182.862 121.112 181.301 118.137 180.575C115.163 179.849 112.043 179.988 109.145 180.976C107.879 181.412 106.515 181.479 105.212 181.171C103.91 180.862 102.721 180.189 101.786 179.231C100.85 178.273 100.206 177.069 99.9278 175.759C99.6497 174.45 99.7493 173.088 100.215 171.833L106.105 156.708"/><path stroke="#120071" stroke-linecap="round" stroke-linejoin="round" stroke-width=".938" d="M27.835 207.219L5.67755 198.594C3.96599 197.927 2.58904 196.608 1.8488 194.926C1.48259 194.093 1.28405 193.197 1.26453 192.287C1.24502 191.377 1.4049 190.473 1.73505 189.625L27.5263 123.338C27.8563 122.489 28.3504 121.713 28.9803 121.056C29.6103 120.398 30.3637 119.871 31.1976 119.505C32.0314 119.139 32.9293 118.94 33.8398 118.922C34.7503 118.903 35.6555 119.064 36.5038 119.395L86.2538 138.726"/><path stroke="#120071" stroke-linecap="round" stroke-linejoin="round" stroke-width=".938" d="M203.72 80.7788C203.868 81.3451 204.091 81.8888 204.385 82.3938"/><path stroke="#120071" stroke-linecap="round" stroke-linejoin="round" stroke-width=".938" d="M203.654 77.4788C203.864 76.4785 204.289 75.5358 204.899 74.7157C205.509 73.8956 206.29 73.2177 207.188 72.7288C209.197 71.6336 210.95 70.1216 212.328 68.294C213.706 66.4665 214.678 64.3656 215.179 62.1321C215.679 59.8985 215.696 57.5839 215.23 55.343C214.763 53.1022 213.823 50.9869 212.473 49.1388C210.666 46.668 208.191 44.7646 205.339 43.6527C202.487 42.5408 199.377 42.2666 196.375 42.8624C193.373 43.4582 190.603 44.8992 188.392 47.0158C186.181 49.1324 184.62 51.8366 183.894 54.8101C183.169 57.7838 183.306 60.9026 184.294 63.8001C184.73 65.0664 184.798 66.4306 184.49 67.7339C184.181 69.0373 183.509 70.2263 182.551 71.1626C181.593 72.0982 180.388 72.7421 179.078 73.0194C177.768 73.2967 176.405 73.1959 175.15 72.7288L151.116 63.3963L144.866 79.4738"/><path stroke="#120071" stroke-linecap="round" stroke-linejoin="round" stroke-width=".938" d="M176.646 164.5L192.771 170.75C193.62 171.081 194.525 171.242 195.435 171.223C196.346 171.204 197.244 171.006 198.077 170.64C198.911 170.274 199.664 169.747 200.294 169.089C200.924 168.432 201.418 167.656 201.747 166.808L205.387 157.443M206.141 84.4701C206.684 84.8926 207.284 85.2376 207.922 85.4913L223.574 91.5476C224.852 92.0438 225.955 92.9088 226.741 94.0327C227.527 95.1566 227.961 96.4888 227.989 97.8601C228.007 98.7705 227.846 99.6757 227.515 100.524L209.029 148.078"/><path stroke="#120071" stroke-linecap="round" stroke-linejoin="round" stroke-width=".938" d="M123.5 109.04C125.102 109.162 126.619 109.814 127.809 110.894C129 111.973 129.797 113.418 130.075 115.001"/><path stroke="#120071" stroke-linecap="round" stroke-linejoin="round" stroke-width=".938" d="M96.9688 79.5438C99.9665 76.519 104.039 74.8029 108.298 74.77"/><path stroke="#120071" stroke-linecap="round" stroke-linejoin="round" stroke-width=".938" d="M116.941 49.4775L80.0126 35.1338"/><path stroke="#120071" stroke-linecap="round" stroke-linejoin="round" stroke-width=".938" d="M136.179 79.8525L143.944 59.9988L129.125 54.2275"/><path stroke="#120071" stroke-linecap="round" stroke-linejoin="round" stroke-width=".938" d="M92.1475 131.055L40.0425 110.798C38.3312 110.127 36.9554 108.806 36.2164 107.123C35.4774 105.441 35.4356 103.534 36.1 101.82L43.035 83.8425C43.4825 82.5861 43.5693 81.2295 43.2855 79.9263C43.0017 78.6231 42.3587 77.4254 41.4293 76.4688C40.4999 75.5122 39.3213 74.835 38.0268 74.5138C36.7323 74.1925 35.3738 74.2402 34.105 74.6513C31.2142 75.6276 28.1049 75.7588 25.1422 75.0294C22.1795 74.3 19.4865 72.7403 17.3794 70.5335C15.2723 68.3268 13.8386 65.5645 13.2468 62.5713C12.655 59.5781 12.9297 56.4781 14.0385 53.6356C15.1472 50.793 17.0441 48.3258 19.5064 46.5239C21.9686 44.7219 24.8939 43.6599 27.9387 43.4627C30.9835 43.2655 34.0213 43.9413 36.6954 45.4106C39.3695 46.8799 41.5688 49.0817 43.035 51.7575C45.7962 56.8288 53.59 56.7575 55.785 51.0688L56.735 48.6225"/><path stroke="#120071" stroke-linecap="round" stroke-linejoin="round" stroke-width=".938" d="M107.899 72.375C108.845 72.1847 109.767 71.8913 110.649 71.5L108.375 74.0813"/><path stroke="#120071" stroke-linecap="round" stroke-linejoin="round" stroke-width=".938" d="M124.85 79.6625C122.195 79.6057 119.575 79.0414 117.131 78C115.544 77.1387 113.998 75.5775 114.068 70.0675C114.13 67.63 114.376 65.2012 114.804 62.8012C118.105 61.7087 116.615 57.8562 114.376 59.3575C113.553 59.91 112.955 60.2537 112.809 59.3575C111.904 53.7687 107.656 52.28 104.996 57.315L104.165 59.2387C102.24 64.6562 101.953 73.3075 107.899 72.3712C108.131 72.9175 108.289 73.4925 108.369 74.0812C108.4 74.675 107.75 77.8562 107.039 78.2612C105.588 79.0887 103.073 79.8762 98.5601 79.6625"/><path stroke="#120071" stroke-linecap="round" stroke-linejoin="round" stroke-width=".938" d="M177.82 93.0688C190.806 91.9326 193.329 91.1489 201.695 89.8989C202.698 89.7506 203.697 89.5684 204.688 89.3526C208.894 88.4626 209.2 87.1026 204.284 87.1676C201.788 87.2006 199.3 86.8726 196.898 86.1938"/><path stroke="#120071" stroke-linecap="round" stroke-linejoin="round" stroke-width=".938" d="M198.685 86.625C198.709 86.7438 201.821 85.795 205.596 84.625C209.824 83.32 210.084 81.6013 204.955 82.3213C202.37 82.813 199.719 82.8611 197.118 82.4638"/><path stroke="#120071" stroke-linecap="round" stroke-linejoin="round" stroke-width=".938" d="M196.216 79.5438C196.216 79.5438 205.5 76.9738 206.071 76.7938C210.446 75.3776 211.106 76.9613 207.378 78.9551C203.958 80.7838 199.398 82.7051 199.398 82.7051"/><path fill="#120071" d="M176.169 78.2538C176.107 78.2589 176.046 78.2764 175.991 78.3051C175.936 78.3339 175.887 78.3734 175.847 78.4213C175.807 78.4692 175.777 78.5246 175.759 78.5842C175.741 78.6438 175.735 78.7065 175.741 78.7684C175.747 78.8304 175.766 78.8906 175.796 78.9453C175.826 79 175.866 79.0482 175.915 79.0871C175.963 79.126 176.019 79.1548 176.079 79.1719C176.139 79.1889 176.202 79.1938 176.264 79.1863L176.169 78.2538ZM182.204 78.1188V78.5875H182.236L182.204 78.1188ZM200.965 73.5113L200.769 73.0863H200.767L200.965 73.5113ZM202.39 75.435L202.632 75.835L202.642 75.83L202.39 75.435ZM197.566 78.755C197.492 78.8475 197.455 78.9646 197.464 79.083C197.472 79.2014 197.525 79.3122 197.611 79.3932C197.698 79.4742 197.812 79.5194 197.931 79.5198C198.05 79.5201 198.164 79.4756 198.251 79.395L197.566 78.755ZM176.216 78.72L176.264 79.1863H176.268L176.28 79.185L176.33 79.18L176.519 79.16C177.426 79.0693 178.332 78.9777 179.239 78.885L181.295 78.6788L181.979 78.6113L182.174 78.5925L182.225 78.5875C182.254 78.585 182.23 78.5875 182.204 78.5875V77.65H182.17L182.16 77.6513L182.14 77.6538L182.084 77.6588L181.887 77.6775L181.201 77.7463L179.145 77.9525L177.097 78.16L176.425 78.2275L176.236 78.2463L176.186 78.2513L176.174 78.2538H176.169L176.216 78.72ZM182.236 78.5875C183.196 78.5225 184.261 78.1263 185.121 77.5488C185.969 76.9825 186.711 76.1738 186.87 75.2275L185.945 75.0725C185.849 75.6475 185.356 76.2638 184.6 76.7713C183.855 77.2688 182.945 77.5988 182.171 77.6513L182.236 78.5875ZM186.87 75.2275C186.981 74.565 187.075 73.8238 187.174 73.1025C187.261 72.4162 187.37 71.7329 187.502 71.0538C187.631 70.4288 187.779 69.9413 187.95 69.6325C188.125 69.3175 188.229 69.3388 188.259 69.3425L188.405 68.4175C187.781 68.3175 187.371 68.745 187.131 69.1788C186.887 69.6175 186.717 70.2225 186.584 70.8638C186.447 71.564 186.334 72.2685 186.244 72.9763C186.145 73.71 186.052 74.43 185.945 75.0725L186.87 75.2275ZM188.259 69.3425C188.507 69.3825 188.744 69.5875 188.955 70.1425C189.162 70.6863 189.289 71.4275 189.397 72.27C189.504 73.09 189.595 74.0075 189.74 74.8163C189.884 75.6175 190.095 76.4088 190.49 76.9663L191.255 76.4225C190.989 76.0488 190.805 75.4388 190.662 74.6513C190.522 73.8713 190.439 73.0113 190.327 72.15C190.219 71.3113 190.082 70.4675 189.831 69.8075C189.584 69.1575 189.164 68.5375 188.405 68.4175L188.259 69.3425ZM190.49 76.9663C190.729 77.3038 191.139 77.3975 191.456 77.425C191.8 77.4538 192.193 77.4163 192.571 77.35C193.262 77.2253 193.939 77.031 194.591 76.77L194.231 75.905C193.644 76.1392 193.034 76.3138 192.411 76.4263C192.123 76.4833 191.829 76.5051 191.536 76.4913C191.282 76.4688 191.242 76.405 191.255 76.4225L190.49 76.9663ZM194.591 76.77C196.787 75.8395 198.979 74.8949 201.162 73.9363L200.767 73.0863C200.324 73.2913 195.635 75.3163 194.231 75.905L194.591 76.77ZM201.161 73.9375C202.192 73.4613 202.968 73.2263 203.493 73.1588C203.671 73.1279 203.853 73.1287 204.031 73.1613C204.13 73.1863 204.114 73.2088 204.092 73.17C204.072 73.1325 204.1 73.135 204.067 73.2325C204.004 73.3918 203.914 73.5389 203.801 73.6675C203.492 74.0475 202.946 74.5238 202.138 75.04L202.642 75.83C203.499 75.2825 204.134 74.7438 204.529 74.26C204.725 74.0188 204.877 73.7725 204.957 73.5263C205.039 73.2813 205.061 72.9913 204.918 72.725C204.773 72.4563 204.516 72.315 204.256 72.25C203.965 72.1888 203.665 72.1816 203.371 72.2288C202.714 72.3138 201.842 72.5913 200.769 73.0863L201.161 73.9375ZM202.147 75.0338C200.457 76.058 198.915 77.3101 197.566 78.755L198.251 79.395C199.542 78.0135 201.016 76.8148 202.632 75.835L202.147 75.0338Z"/><path stroke="#120071" stroke-linecap="round" stroke-linejoin="round" stroke-width=".938" d="M195.409 77.6913C196.973 80.6747 197.436 84.1144 196.714 87.405"/><path stroke="#120071" stroke-linecap="round" stroke-linejoin="round" stroke-width=".938" d="M193.152 79.5675C192.844 83.415 191.152 86.075 187.547 86.7875"/><path stroke="#120071" stroke-linecap="round" stroke-linejoin="round" stroke-width=".938" d="M125.42 100.016C125.875 98.0086 126.462 96.033 127.178 94.1025L131.325 100.159"/><path stroke="#120071" stroke-linecap="round" stroke-linejoin="round" stroke-width=".938" d="M114.938 146.058L110.483 131.269L117.369 143.073"/><path stroke="#120071" stroke-linecap="round" stroke-linejoin="round" stroke-width=".938" d="M101.434 118.896C76.9251 150.863 63.0589 170.834 30.6839 200.996C25.8089 205.543 40.0026 221.098 44.9339 216.646L53.4339 208.976C76.5001 188.125 91.3876 174.303 109.625 152.525C109.625 152.525 116.559 144.094 117.366 143.073L129.645 164.138C131.001 166.474 133.044 168.336 135.495 169.471C137.947 170.605 140.689 170.957 143.348 170.479L191.348 161.854C195.646 161.138 192.086 141.211 187.714 141.979L145.013 148.344C145.013 148.344 141.691 133.719 141.138 131.196C140.149 126.606 137.936 122.369 134.733 118.936C131.53 115.502 127.457 113.001 122.946 111.696"/><path stroke="#120071" stroke-linecap="round" stroke-linejoin="round" stroke-width=".938" d="M105 57.2912C107.518 52.3512 112.125 48.3625 119.676 57.0062C127.75 66.245 114.071 70.0913 114.071 70.0913"/><path stroke="#120071" stroke-linecap="round" stroke-linejoin="round" stroke-width=".938" d="M128.413 54.8925C125.61 57.8138 121.223 58.1638 118.604 55.6525C115.985 53.1413 116.134 48.7413 118.936 45.82C121.739 42.8988 126.126 42.5488 128.745 45.06C131.364 47.5713 131.215 51.9713 128.413 54.8925Z"/><path stroke="#120071" stroke-linecap="round" stroke-linejoin="round" stroke-width=".938" d="M40.375 216.931C38.5225 218.806 37.07 220.411 35.15 221.016C33.44 221.515 31.65 221.676 29.8775 221.491C22.395 220.895 7.48752 227.523 6.98377 223.463C6.84252 222.323 11.425 218.95 16.84 215.338C20.26 213.058 25.4375 209.116 29.9963 205.53"/><path stroke="#120071" stroke-linecap="round" stroke-linejoin="round" stroke-width=".938" d="M190.421 144.07C193.438 143.286 195.764 142.411 197.973 142.93C199.694 143.368 201.314 144.131 202.746 145.18C208.891 149.478 225.105 151.325 223.504 155.083C223.049 156.15 217.379 156.723 210.893 157.101C206.428 157.364 199.207 158.241 193.105 159.101"/><path stroke="#120071" stroke-linecap="round" stroke-linejoin="round" stroke-width=".938" d="M178.613 76.1012C179.503 76.0275 180.468 76.7262 181.324 78.2112"/><path stroke="#120071" stroke-linecap="round" stroke-linejoin="round" stroke-width=".938" d="M182.275 92.6538C181.753 93.7938 181.04 94.5063 180.233 94.5776"/><path stroke="#120071" stroke-linecap="round" stroke-linejoin="round" stroke-width=".938" d="M150.333 30.8588C150.357 31.0155 150.336 31.176 150.273 31.3213C150.209 31.4666 150.105 31.5905 149.973 31.6783C149.84 31.7661 149.686 31.8141 149.527 31.8166C149.368 31.8191 149.212 31.7761 149.078 31.6925C148.897 31.5781 148.768 31.3985 148.718 31.1913L146.699 21.3163C146.655 21.1052 146.697 20.8855 146.815 20.7052C146.933 20.5249 147.118 20.3986 147.329 20.3538C147.54 20.3101 147.759 20.352 147.94 20.4701C148.12 20.5882 148.246 20.7729 148.29 20.9838L150.333 30.8588Z"/><path stroke="#120071" stroke-linecap="round" stroke-linejoin="round" stroke-width=".938" d="M146.319 15.3976L147.506 21.1451"/><path stroke="#120071" stroke-linecap="round" stroke-linejoin="round" stroke-width=".938" d="M143.398 1.12504C142.342 1.34069 141.348 1.78776 140.486 2.43403C139.625 3.0803 138.917 3.90967 138.415 4.86236C137.913 5.81506 137.628 6.86735 137.581 7.94339C137.534 9.01943 137.727 10.0924 138.145 11.085C138.68 12.3569 139.565 13.4506 140.698 14.2388C141.83 15.0271 143.163 15.4775 144.542 15.5375C145.92 15.5976 147.288 15.2649 148.484 14.5781C149.681 13.8914 150.658 12.8788 151.302 11.6583C151.945 10.4378 152.229 9.05966 152.12 7.6842C152.011 6.30874 151.513 4.99258 150.685 3.88896C149.857 2.78534 148.732 1.93964 147.442 1.45033C146.152 0.961012 144.749 0.848203 143.398 1.12504Z"/><path stroke="#120071" stroke-linecap="round" stroke-linejoin="round" stroke-width=".938" d="M230.77 134.404L227.991 133.573"/><path stroke="#120071" stroke-linecap="round" stroke-linejoin="round" stroke-width=".938" d="M234.143 132.551L234.95 129.773"/><path stroke="#120071" stroke-linecap="round" stroke-linejoin="round" stroke-width=".938" d="M231.791 140.531L232.623 137.776"/><path stroke="#120071" stroke-linecap="round" stroke-linejoin="round" stroke-width=".938" d="M235.995 135.924L238.75 136.731"/><path stroke="#120071" stroke-linecap="round" stroke-linejoin="round" stroke-width=".938" d="M236 135.924C235.308 135.72 234.724 135.251 234.377 134.619C234.03 133.986 233.947 133.242 234.148 132.549C233.944 133.241 233.475 133.825 232.842 134.172C232.21 134.519 231.466 134.601 230.773 134.401C231.465 134.605 232.048 135.074 232.396 135.706C232.743 136.339 232.825 137.083 232.625 137.776C232.828 137.084 233.298 136.501 233.93 136.153C234.563 135.806 235.307 135.724 236 135.924Z"/><path stroke="#120071" stroke-linecap="round" stroke-linejoin="round" stroke-width=".938" d="M59.4687 57.125C58.0424 53.702 56.9912 50.1345 56.3337 46.485"/><path stroke="#120071" stroke-linecap="round" stroke-linejoin="round" stroke-width=".938" d="M64.7414 44.6563L47.8326 48.29C47.0452 48.46 46.2226 48.3103 45.5456 47.8738C44.8686 47.4374 44.3927 46.7498 44.2226 45.9625L37.0739 12.6425L47.3814 10.4338C47.9564 10.3152 48.5534 10.3635 49.1019 10.5731C49.6504 10.7827 50.1275 11.1447 50.477 11.6165C50.8265 12.0884 51.0338 12.6503 51.0744 13.236C51.1151 13.8218 50.9874 14.407 50.7064 14.9225C50.0777 16.1067 49.8002 17.4457 49.9064 18.7822C50.0127 20.1187 50.4983 21.3971 51.3061 22.4671C52.114 23.5371 53.2106 24.3542 54.4669 24.8223C55.7232 25.2904 57.0871 25.3902 58.3981 25.1098C59.7092 24.8294 60.9129 24.1805 61.8679 23.2394C62.8228 22.2984 63.4892 21.1042 63.7888 19.7974C64.0883 18.4906 64.0085 17.1254 63.5588 15.8624C63.1091 14.5994 62.3081 13.491 61.2501 12.6675C60.7862 12.3102 60.4332 11.8285 60.2323 11.2785C60.0313 10.7285 59.9907 10.1327 60.1151 9.56046C60.2395 8.98823 60.5238 8.46309 60.9349 8.04611C61.3461 7.62913 61.8672 7.33746 62.4376 7.20502L73.4814 4.80627L80.6539 38.125C80.8238 38.9124 80.6741 39.735 80.2377 40.412C79.8012 41.089 79.1137 41.5649 78.3264 41.735L68.0901 43.9438"/><path stroke="#120071" stroke-linecap="round" stroke-linejoin="round" stroke-width=".938" d="M64.0288 54.0851C62.675 52.4226 62.2238 48.4088 64.5988 46.5851C64.5988 46.5851 64.915 39.8701 66.0713 38.3451C67.2275 36.8201 67.875 43.1376 68.375 45.5351C68.7038 47.1038 69.5625 50.7363 70.4175 53.7288"/><path stroke="#120071" stroke-linecap="round" stroke-linejoin="round" stroke-width=".938" d="M91.5638 99.75L95.3301 90.625C94.0962 93.5625 93.6857 96.7806 94.1426 99.9337"/><path stroke="#120071" stroke-linecap="round" stroke-linejoin="round" stroke-width=".938" d="M178.613 76.1013C157.81 78.8075 136.558 80.5888 124.85 79.6625C115.445 81.99 106.611 82.2513 98.5601 79.6625C94.4038 79.4725 88.5851 78.38 80.3926 75.6488L73.6713 54.2275C72.9588 51.9 56.4763 56.935 57.1888 59.2625L68.0901 93.0338C76.1805 97.1729 85.0643 99.5292 94.1426 99.9438C94.7126 104.029 96.6838 109.8 101.434 118.896C106.54 121.936 117.559 117.59 122.809 112.128C123.735 107.853 124.566 103.601 125.421 100.016C143.845 100.641 162.269 98.8113 180.21 94.5775C175.315 95 173.625 76.5225 178.613 76.1013Z"/><path stroke="#120071" stroke-linecap="round" stroke-linejoin="round" stroke-width=".938" d="M36.5 195.439C32.7713 198.689 46.875 214.814 50.5838 211.588"/><path stroke="#120071" stroke-linecap="round" stroke-linejoin="round" stroke-width=".938" d="M179.021 143.286C182.299 142.693 185.956 162.831 182.679 163.425"/><path stroke="#120071" stroke-linecap="round" stroke-linejoin="round" stroke-width=".938" d="M164.559 199.643L155.581 222.75"/><path stroke="#120071" stroke-linecap="round" stroke-linejoin="round" stroke-width=".938" d="M171.635 215.673L148.504 206.72"/><path stroke="#120071" stroke-linecap="round" stroke-linejoin="round" stroke-width=".938" d="M3.8963 119.728C4.3713 118.374 5.2263 117.566 7.6963 115.88C12.9251 112.31 11.9463 108.216 8.86005 106.998C8.31449 106.787 7.72943 106.699 7.14607 106.739C6.5627 106.779 5.9952 106.946 5.48351 107.229C4.97182 107.512 4.52838 107.904 4.1844 108.377C3.84042 108.85 3.60427 109.392 3.49255 109.966"/><path stroke="#120071" stroke-linecap="round" stroke-linejoin="round" stroke-width=".938" d="M43.2251 208.5C67.4251 185.829 90.4442 161.93 112.191 136.896"/><path stroke="#120071" stroke-linecap="round" stroke-linejoin="round" stroke-width=".938" d="M117.375 116.284C117.375 116.284 130.077 121.889 131.269 132.076C131.931 137.753 135.686 149.485 137.681 155.469C138.026 156.508 138.722 157.394 139.649 157.975C140.577 158.555 141.678 158.795 142.762 158.651L183.398 153.331"/></svg>